#VRML V2.0 utf8
# 3D model generated by kicad-lcsc-manager
# Based on easyeda2kicad.py v1.0.1

Shape{
    appearance Appearance {
        material  Material {
            diffuseColor 0.20784313725490197 0.20784313725490197 0.20784313725490197
            specularColor 0.01568627450980392 0.01568627450980392 0.01568627450980392
            ambientIntensity 0.298
            transparency 0.0
            shininess 0.5
        }
    }
    geometry IndexedFaceSet {
        ccw TRUE
        solid FALSE
        coord DEF co Coordinate {
            point [
                -0.5825 0.3936 0.4213, -0.5825 -0.3974 0.4213, -0.4494 0.3936 0.4213, -0.4494 -0.3974 0.4213, 0.5825 -0.3974 0.4213, 0.5825 0.3936 0.4213, -0.4022 -0.3974 0.4213, -0.4022 0.3936 0.4213, 0.5216 -0.2874 0.0079, 0.6178 -0.2874 0.0079, 0.6178 -0.4327 0.0079, 0.0674 0.0285 0.0079, 0.0752 0.0277 0.0079, 0.0504 -0.0306 0.0079, 0.049 -0.0298 0.0079, 0.049 -0.0384 0.0079, 0.0413 -0.043 0.0079, 0.1546 -0.0425 0.0079, 0.0753 -0.043 0.0079, 0.1143 -0.0425 0.0079, 0.0803 -0.0425 0.0079, 0.088 -0.0399 0.0079, 0.0578 0.0273 0.0079, 0.049 0.0235 0.0079, 0.0413 0.4288 0.0079, 0.049 0.0341 0.0079, 0.081 0.0255 0.0079, 0.0865 0.0219 0.0079, 0.0913 0.0166 0.0079, 0.097 -0.004 0.0079, 0.0962 -0.0125 0.0079, 0.094 -0.0193 0.0079, 0.0765 -0.034 0.0079, 0.0692 -0.0348 0.0079, 0.0823 -0.0319 0.0079, 0.0871 -0.0286 0.0079, 0.0908 -0.0248 0.0079, 0.0587 -0.0337 0.0079, 0.1034 0.0155 0.0079, 0.0988 0.0228 0.0079, 0.144 0.0362 0.0079, 0.1546 0.0362 0.0079, 0.6178 0.4288 0.0079, 0.0945 0.0106 0.0079, 0.0966 0.0021 0.0079, 0.0943 -0.0358 0.0079, 0.1002 -0.0296 0.0079, 0.1143 -0.0339 0.0079, 0.1044 -0.0221 0.0079, 0.144 -0.0339 0.0079, 0.0917 0.0297 0.0079, 0.0842 0.034 0.0079, 0.0754 0.0365 0.0079, 0.1068 -0.0138 0.0079, 0.1075 -0.0046 0.0079, 0.1064 0.0066 0.0079, 0.0675 0.0372 0.0079, 0.0581 0.0365 0.0079, 0.0574 -0.0419 0.0079, 0.0653 -0.043 0.0079, 0.0413 -0.4327 0.0079, 0.0685 -0.0434 0.0079, 0.0706 -0.0435 0.0079, 0.5216 -0.043 0.0079, 0.5216 0.2835 0.0079, 0.6178 0.2835 0.0079, -0.0932 -0.0425 0.0079, -0.0835 -0.0209 0.0079, -0.0789 -0.028 0.0079, -0.0087 -0.0425 0.0079, 0.0336 -0.0425 0.0079, 0.0336 0.0362 0.0079, -0.5217 0.2835 0.0079, -0.6178 0.2835 0.0079, -0.6178 0.4288 0.0079, -0.0725 -0.0342 0.0079, -0.0642 -0.039 0.0079, -0.0552 -0.0417 0.0079, -0.0067 0.0362 0.0079, -0.1229 0.0362 0.0079, -0.1335 0.0362 0.0079, 0.023 0.0276 0.0079, 0.023 0.0016 0.0079, -0.0067 0.0276 0.0079, -0.0048 0.0016 0.0079, -0.024 0.0362 0.0079, -0.0048 -0.007 0.0079, 0.023 -0.007 0.0079, 0.023 -0.0339 0.0079, -0.0087 -0.0339 0.0079, -0.024 -0.0425 0.0079, -0.0454 -0.0425 0.0079, -0.5217 -0.043 0.0079, -0.1642 -0.0425 0.0079, -0.1527 -0.0425 0.0079, -0.0576 0.035 0.0079, -0.0668 0.0318 0.0079, -0.0754 0.026 0.0079, -0.0755 0.0259 0.0079, -0.081 0.0198 0.0079, -0.0847 0.013 0.0079, -0.1447 -0.0204 0.0079, -0.1122 -0.0204 0.0079, -0.1047 -0.0425 0.0079, -0.0868 0.0052 0.0079, -0.0874 -0.0022 0.0079, -0.0863 -0.0127 0.0079, -0.0462 0.0362 0.0079, -0.6178 -0.4327 0.0079, -0.6178 -0.2874 0.0079, -0.5217 -0.2874 0.0079, 0.6328 0.4288 0.0098, 0.6329 -0.2874 0.0097, 0.68 -0.4327 0.0634, 0.6776 -0.4327 0.0511, 0.6803 -0.2874 0.063, 0.6767 -0.2874 0.0486, 0.6764 -0.4327 0.0487, 0.6708 -0.4327 0.0369, 0.6696 -0.2874 0.0351, 0.6695 -0.4327 0.0353, 0.6608 -0.4327 0.0248, 0.6596 -0.2874 0.0237, 0.6595 -0.4327 0.0239, 0.648 -0.4327 0.0156, 0.6471 -0.2874 0.0151, 0.647 -0.4327 0.0152, 0.6334 -0.4327 0.0098, 0.6328 -0.4327 0.0098, 0.6334 0.4288 0.0098, 0.6471 0.2835 0.0151, 0.6329 0.2835 0.0097, 0.647 0.4288 0.0152, 0.648 0.4288 0.0156, 0.6596 0.2835 0.0237, 0.6595 0.4288 0.0239, 0.6608 0.4288 0.0248, 0.6696 0.2835 0.0351, 0.6695 0.4288 0.0353, 0.6708 0.4288 0.0369, 0.6767 0.2835 0.0486, 0.6764 0.4288 0.0487, 0.6803 0.2835 0.063, 0.6776 0.4288 0.0511, 0.68 0.4288 0.0634, 0.6806 -0.4327 0.0666, 0.6806 0.4288 0.0666, 0.6803 -0.4327 0.0785, 0.6803 0.4288 0.0785, -0.6329 0.2835 0.0097, -0.6329 -0.4327 0.0098, -0.6334 -0.4327 0.0098, -0.6471 -0.2874 0.0151, -0.6329 -0.2874 0.0097, -0.647 -0.4327 0.0152, -0.648 -0.4327 0.0156, -0.6596 -0.2874 0.0237, -0.6595 -0.4327 0.0239, -0.6608 -0.4327 0.0248, -0.6697 -0.2874 0.0351, -0.6767 0.2835 0.0486, -0.6803 0.2835 0.063, -0.6776 0.4288 0.0511, -0.68 0.4288 0.0634, -0.6695 -0.4327 0.0353, -0.6709 -0.4327 0.0369, -0.6767 -0.2874 0.0486, -0.6765 -0.4327 0.0487, -0.6803 -0.2874 0.063, -0.6776 -0.4327 0.0511, -0.68 -0.4327 0.0634, -0.6765 0.4288 0.0487, -0.6709 0.4288 0.0369, -0.6697 0.2835 0.0351, -0.6695 0.4288 0.0353, -0.6608 0.4288 0.0248, -0.6596 0.2835 0.0237, -0.6595 0.4288 0.0239, -0.648 0.4288 0.0156, -0.6471 0.2835 0.0151, -0.647 0.4288 0.0152, -0.6334 0.4288 0.0098, -0.6329 0.4288 0.0098, -0.6806 0.4288 0.0666, -0.6806 -0.4327 0.0666, -0.6803 0.4288 0.0785, -0.6803 -0.4327 0.0785, 0.645 0.3936 0.3659, 0.645 -0.3974 0.3659, -0.6178 0.4914 0.0785, -0.5825 0.4561 0.3659, 0.6178 0.4914 0.0785, 0.5825 0.4561 0.3659, -0.645 -0.3974 0.3659, -0.645 0.3936 0.3659, 0.6178 -0.4952 0.0785, 0.5825 -0.4599 0.3659, -0.6178 -0.4952 0.0785, -0.5825 -0.4599 0.3659
            ]
        }
        coordIndex [
            0,1,2,-1,2,1,3,-1,4,5,6,-1,6,5,7,-1,8,9,10,-1,11,12,13,-1,14,15,16,-1,17,18,19,-1,19,18,20,-1,19,20,21,-1,11,13,22,-1,22,13,14,-1,22,14,23,-1,23,14,24,-1,23,24,25,-1,12,26,13,-1,13,26,27,-1,13,27,28,-1,29,30,13,-1,13,30,31,-1,32,33,34,-1,34,33,35,-1,31,36,13,-1,13,36,35,-1,13,35,37,-1,37,35,33,-1,38,39,40,-1,40,39,24,-1,40,24,41,-1,41,24,42,-1,41,42,17,-1,28,43,13,-1,13,43,44,-1,13,44,29,-1,21,45,19,-1,19,45,46,-1,19,46,47,-1,47,46,48,-1,47,48,49,-1,39,50,24,-1,24,50,51,-1,24,51,52,-1,48,53,49,-1,49,53,54,-1,49,54,40,-1,40,54,55,-1,40,55,38,-1,52,56,24,-1,24,56,57,-1,24,57,25,-1,15,58,16,-1,16,58,59,-1,16,59,60,-1,59,61,60,-1,60,61,62,-1,60,62,18,-1,10,60,8,-1,8,60,18,-1,8,18,63,-1,63,18,17,-1,63,17,64,-1,64,17,42,-1,64,42,65,-1,66,67,68,-1,69,70,16,-1,16,70,71,-1,72,73,74,-1,68,75,66,-1,66,75,76,-1,66,76,77,-1,14,16,24,-1,24,16,71,-1,24,71,74,-1,74,71,78,-1,74,78,72,-1,79,80,72,-1,81,82,83,-1,83,82,84,-1,83,84,85,-1,85,84,86,-1,87,88,86,-1,86,88,89,-1,86,89,85,-1,85,89,69,-1,85,69,90,-1,90,69,16,-1,90,16,91,-1,72,80,92,-1,93,94,16,-1,95,96,79,-1,79,96,97,-1,97,98,79,-1,79,98,99,-1,79,99,100,-1,101,102,94,-1,94,102,103,-1,94,103,16,-1,16,103,66,-1,16,66,91,-1,91,66,77,-1,100,104,79,-1,79,104,105,-1,79,105,66,-1,66,105,106,-1,66,106,67,-1,95,79,107,-1,107,79,72,-1,107,72,85,-1,85,72,78,-1,85,78,83,-1,108,109,110,-1,80,93,92,-1,92,93,16,-1,92,16,110,-1,110,16,60,-1,110,60,108,-1,65,42,111,-1,10,9,112,-1,113,114,115,-1,115,114,116,-1,114,117,116,-1,116,117,118,-1,116,118,119,-1,118,120,119,-1,119,120,121,-1,119,121,122,-1,121,123,122,-1,122,123,124,-1,122,124,125,-1,124,126,125,-1,125,126,127,-1,125,127,112,-1,112,127,128,-1,112,128,10,-1,129,130,111,-1,111,130,131,-1,111,131,65,-1,129,132,130,-1,130,132,133,-1,130,133,134,-1,133,135,134,-1,134,135,136,-1,134,136,137,-1,136,138,137,-1,137,138,139,-1,137,139,140,-1,140,139,141,-1,140,141,142,-1,142,141,143,-1,142,143,144,-1,115,142,113,-1,113,142,144,-1,113,144,145,-1,145,144,146,-1,145,146,147,-1,147,146,148,-1,74,73,149,-1,109,108,150,-1,151,152,150,-1,150,152,153,-1,150,153,109,-1,151,154,152,-1,152,154,155,-1,152,155,156,-1,155,157,156,-1,156,157,158,-1,156,158,159,-1,160,161,162,-1,162,161,163,-1,158,164,159,-1,159,164,165,-1,159,165,166,-1,166,165,167,-1,166,167,168,-1,168,167,169,-1,168,169,170,-1,162,171,160,-1,160,171,172,-1,160,172,173,-1,172,174,173,-1,173,174,175,-1,173,175,176,-1,175,177,176,-1,176,177,178,-1,176,178,179,-1,178,180,179,-1,179,180,181,-1,179,181,149,-1,149,181,182,-1,149,182,74,-1,161,168,163,-1,163,168,170,-1,163,170,183,-1,183,170,184,-1,183,184,185,-1,185,184,186,-1,148,187,147,-1,147,187,188,-1,189,190,191,-1,191,190,192,-1,186,193,185,-1,185,193,194,-1,195,196,197,-1,197,196,198,-1,
        ]
    }
}
Shape{
    appearance Appearance {
        material  Material {
            diffuseColor 0.34901960784313724 0.34901960784313724 0.34901960784313724
            specularColor 0.023529411764705882 0.023529411764705882 0.023529411764705882
            ambientIntensity 0.498
            transparency 0.0
            shininess 0.5
        }
    }
    geometry IndexedFaceSet {
        ccw TRUE
        solid FALSE
        coord DEF co Coordinate {
            point [
                -0.4494 -0.3974 0.4213, -0.4022 -0.3974 0.4213, -0.4494 0.3936 0.4213, -0.4022 0.3936 0.4213
            ]
        }
        coordIndex [
            0,1,2,-1,2,1,3,-1,
        ]
    }
}
Shape{
    appearance Appearance {
        material  Material {
            diffuseColor 0.20784313725490197 0.20784313725490197 0.20784313725490197
            specularColor 0.01568627450980392 0.01568627450980392 0.01568627450980392
            ambientIntensity 0.298
            transparency 0.0
            shininess 0.5
        }
    }
    geometry IndexedFaceSet {
        ccw TRUE
        solid FALSE
        coord DEF co Coordinate {
            point [
                -0.6803 -0.4327 0.0785, -0.678 -0.4487 0.0802, -0.645 -0.3974 0.3659, -0.6427 -0.4134 0.3676, -0.6427 -0.4135 0.3676, -0.6779 -0.4488 0.0802, -0.6363 -0.4284 0.3687, -0.6716 -0.4637 0.0813, -0.6363 -0.4285 0.3687, -0.6716 -0.4638 0.0813, -0.6264 -0.4413 0.369, -0.6617 -0.4766 0.0816, -0.6136 -0.4512 0.3687, -0.6488 -0.4865 0.0813, -0.6135 -0.4513 0.3687, -0.6488 -0.4865 0.0813, -0.5986 -0.4576 0.3676, -0.6339 -0.4929 0.0802, -0.5985 -0.4576 0.3676, -0.6338 -0.4929 0.0802, -0.6178 -0.4952 0.0785, -0.5825 -0.4599 0.3659, -0.5825 -0.4492 0.3941, -0.5825 -0.4394 0.4053, -0.5934 -0.4379 0.4053, -0.5901 -0.4258 0.414, -0.5864 -0.412 0.4194, -0.5901 -0.4105 0.4194, -0.5825 -0.3974 0.4213, -0.5956 -0.405 0.4194, -0.5932 -0.4081 0.4194, -0.5971 -0.4013 0.4194, -0.5825 -0.4125 0.4194, -0.5978 -0.4544 0.3802, -0.612 -0.4485 0.3802, -0.6242 -0.4392 0.3802, -0.6336 -0.4269 0.3802, -0.6395 -0.4127 0.3802, -0.6415 -0.3974 0.3802, -0.5976 -0.3974 0.4194, -0.5825 -0.4391 0.4054, -0.5825 -0.4268 0.414, -0.5825 -0.4267 0.414, -0.5825 -0.4126 0.4194, -0.5972 -0.4229 0.414, -0.6033 -0.4182 0.414, -0.608 -0.4121 0.414, -0.6109 -0.405 0.414, -0.5976 -0.3974 0.4194, -0.6117 -0.3974 0.414, -0.6119 -0.3974 0.414, -0.6242 -0.3974 0.4054, -0.6035 -0.4337 0.4053, -0.6122 -0.4271 0.4053, -0.6188 -0.4184 0.4053, -0.623 -0.4083 0.4053, -0.5825 -0.4562 0.3806, -0.5825 -0.4494 0.3938, -0.596 -0.4477 0.3938, -0.6085 -0.4425 0.3938, -0.6193 -0.4342 0.3938, -0.6275 -0.4234 0.3938, -0.6327 -0.4109 0.3938, -0.5825 -0.4564 0.3802, -0.6244 -0.3974 0.4053, -0.6343 -0.3974 0.3941, -0.6345 -0.3974 0.3938, -0.6413 -0.3974 0.3806, -0.6329 -0.4327 0.0098, -0.6178 -0.4327 0.0079, -0.6329 -0.4367 0.0098, -0.6178 -0.4619 0.0152, -0.6178 -0.4629 0.0156, -0.6256 -0.4619 0.0156, -0.6178 -0.4744 0.0239, -0.6178 -0.4757 0.0248, -0.6289 -0.4742 0.0248, -0.6178 -0.4844 0.0353, -0.6178 -0.4858 0.0369, -0.6315 -0.484 0.0369, -0.6333 -0.4905 0.0511, -0.6341 -0.4934 0.0666, -0.6492 -0.4871 0.0666, -0.6806 -0.4327 0.0666, -0.6785 -0.449 0.0666, -0.6178 -0.4955 0.0666, -0.6178 -0.4949 0.0634, -0.6178 -0.4925 0.0511, -0.6178 -0.4914 0.0487, -0.68 -0.4327 0.0634, -0.6756 -0.4482 0.0511, -0.6477 -0.4845 0.0511, -0.6622 -0.4771 0.0666, -0.6776 -0.4327 0.0511, -0.6765 -0.4327 0.0487, -0.669 -0.4464 0.0369, -0.6443 -0.4787 0.0369, -0.6601 -0.475 0.0511, -0.6709 -0.4327 0.0369, -0.6695 -0.4327 0.0353, -0.6593 -0.4438 0.0248, -0.6393 -0.4699 0.0248, -0.6553 -0.4702 0.0369, -0.6608 -0.4327 0.0248, -0.6595 -0.4327 0.0239, -0.647 -0.4405 0.0156, -0.6482 -0.4631 0.0248, -0.6329 -0.4589 0.0156, -0.6218 -0.4478 0.0098, -0.6722 -0.4641 0.0666, -0.6696 -0.4626 0.0511, -0.6637 -0.4592 0.0369, -0.655 -0.4542 0.0248, -0.644 -0.4478 0.0156, -0.6313 -0.4405 0.0098, -0.6178 -0.4478 0.0098, -0.6178 -0.4483 0.0098, -0.6392 -0.4541 0.0156, -0.6256 -0.4462 0.0098, -0.6288 -0.4437 0.0098, -0.648 -0.4327 0.0156, -0.647 -0.4327 0.0152, -0.6334 -0.4327 0.0098, -0.4494 -0.3974 0.4213, -0.4022 -0.3974 0.4213, 0.5825 -0.3974 0.4213, 0.5825 -0.4125 0.4194, 0.5825 -0.4126 0.4194, 0.5825 -0.4267 0.414, 0.5825 -0.4268 0.414, 0.5825 -0.4391 0.4054, 0.5825 -0.4394 0.4053, 0.5825 -0.4492 0.3941, 0.5825 -0.4494 0.3938, 0.5825 -0.4562 0.3806, 0.5825 -0.4564 0.3802, 0.5825 -0.4599 0.3659, -0.5825 0.3936 0.4213, -0.5976 0.3936 0.4194, -0.645 0.3936 0.3659, -0.6415 0.3936 0.3802, -0.6413 0.3936 0.3806, -0.6345 0.3936 0.3938, -0.6343 0.3936 0.3941, -0.6244 0.3936 0.4053, -0.6242 0.3936 0.4054, -0.6119 0.3936 0.414, -0.6117 0.3936 0.414, -0.5976 0.3936 0.4194, -0.6178 0.4914 0.0785, -0.6338 0.489 0.0802, -0.5825 0.4561 0.3659, -0.5985 0.4537 0.3676, -0.5986 0.4537 0.3676, -0.6339 0.489 0.0802, -0.6135 0.4474 0.3687, -0.6488 0.4827 0.0813, -0.6136 0.4473 0.3687, -0.6488 0.4826 0.0813, -0.6264 0.4374 0.369, -0.6617 0.4727 0.0816, -0.6363 0.4246 0.3687, -0.6716 0.4599 0.0813, -0.6363 0.4245 0.3687, -0.6716 0.4598 0.0813, -0.6427 0.4097 0.3676, -0.6779 0.445 0.0802, -0.6427 0.4096 0.3676, -0.678 0.4449 0.0802, -0.6803 0.4288 0.0785, 0.0413 -0.4327 0.0079, 0.6178 -0.4327 0.0079, 0.6178 -0.4478 0.0098, 0.6178 -0.4483 0.0098, 0.6178 -0.4619 0.0152, 0.6178 -0.4629 0.0156, 0.6178 -0.4744 0.0239, 0.6178 -0.4757 0.0248, 0.6178 -0.4844 0.0353, 0.6178 -0.4858 0.0369, 0.6178 -0.4914 0.0487, 0.6178 -0.4925 0.0511, 0.6178 -0.4949 0.0634, 0.6178 -0.4955 0.0666, 0.6178 -0.4952 0.0785, 0.6338 -0.4929 0.0802, 0.5985 -0.4576 0.3676, 0.5986 -0.4576 0.3676, 0.6339 -0.4929 0.0802, 0.6135 -0.4513 0.3687, 0.6488 -0.4865 0.0813, 0.6135 -0.4512 0.3687, 0.6488 -0.4865 0.0813, 0.6264 -0.4413 0.369, 0.6617 -0.4766 0.0816, 0.6363 -0.4285 0.3687, 0.6716 -0.4638 0.0813, 0.6363 -0.4284 0.3687, 0.6716 -0.4637 0.0813, 0.6426 -0.4135 0.3676, 0.6779 -0.4488 0.0802, 0.6427 -0.4134 0.3676, 0.678 -0.4487 0.0802, 0.6803 -0.4327 0.0785, 0.645 -0.3974 0.3659, 0.6343 -0.3974 0.3941, 0.6244 -0.3974 0.4053, 0.623 -0.4083 0.4053, 0.6109 -0.405 0.414, 0.5971 -0.4013 0.4194, 0.5956 -0.405 0.4194, 0.5901 -0.4105 0.4194, 0.5932 -0.4081 0.4194, 0.5864 -0.412 0.4194, 0.5975 -0.3974 0.4194, 0.6395 -0.4127 0.3802, 0.6336 -0.4269 0.3802, 0.6242 -0.4392 0.3802, 0.612 -0.4485 0.3802, 0.5978 -0.4544 0.3802, 0.6242 -0.3974 0.4054, 0.6119 -0.3974 0.414, 0.6117 -0.3974 0.414, 0.5976 -0.3974 0.4194, 0.6079 -0.4121 0.414, 0.6033 -0.4182 0.414, 0.5972 -0.4229 0.414, 0.5901 -0.4258 0.414, 0.6188 -0.4184 0.4053, 0.6121 -0.4271 0.4053, 0.6035 -0.4337 0.4053, 0.5933 -0.4379 0.4053, 0.6413 -0.3974 0.3806, 0.6345 -0.3974 0.3938, 0.6327 -0.4109 0.3938, 0.6275 -0.4234 0.3938, 0.6193 -0.4342 0.3938, 0.6085 -0.4425 0.3938, 0.5959 -0.4477 0.3938, 0.6415 -0.3974 0.3802, -0.623 0.4044 0.4053, -0.6109 0.4012 0.414, -0.5971 0.3975 0.4194, -0.5956 0.4011 0.4194, -0.5901 0.4067 0.4194, -0.5932 0.4043 0.4194, -0.5864 0.4082 0.4194, -0.6395 0.4088 0.3802, -0.6336 0.4231 0.3802, -0.6242 0.4353 0.3802, -0.612 0.4447 0.3802, -0.5978 0.4506 0.3802, -0.5825 0.4526 0.3802, -0.5825 0.4086 0.4194, -0.608 0.4083 0.414, -0.6033 0.4143 0.414, -0.5972 0.419 0.414, -0.5901 0.422 0.414, -0.5825 0.4087 0.4194, -0.5825 0.4228 0.414, -0.5825 0.423 0.414, -0.5825 0.4353 0.4054, -0.6188 0.4145 0.4053, -0.6122 0.4232 0.4053, -0.6035 0.4299 0.4053, -0.5934 0.4341 0.4053, -0.6327 0.407 0.3938, -0.6275 0.4196 0.3938, -0.6193 0.4303 0.3938, -0.6085 0.4386 0.3938, -0.596 0.4438 0.3938, -0.5825 0.4355 0.4053, -0.5825 0.4453 0.3941, -0.5825 0.4456 0.3938, -0.5825 0.4524 0.3806, -0.6178 0.4439 0.0098, -0.6178 0.4288 0.0079, -0.6218 0.4439 0.0098, -0.647 0.4288 0.0152, -0.648 0.4288 0.0156, -0.647 0.4367 0.0156, -0.6595 0.4288 0.0239, -0.6608 0.4288 0.0248, -0.6593 0.44 0.0248, -0.6695 0.4288 0.0353, -0.6709 0.4288 0.0369, -0.669 0.4426 0.0369, -0.6756 0.4443 0.0511, -0.6785 0.4451 0.0666, -0.6722 0.4603 0.0666, -0.6178 0.4917 0.0666, -0.6341 0.4895 0.0666, -0.6806 0.4288 0.0666, -0.68 0.4288 0.0634, -0.6776 0.4288 0.0511, -0.6765 0.4288 0.0487, -0.6178 0.4911 0.0634, -0.6333 0.4866 0.0511, -0.6696 0.4588 0.0511, -0.6622 0.4733 0.0666, -0.6178 0.4887 0.0511, -0.6178 0.4875 0.0487, -0.6315 0.4801 0.0369, -0.6637 0.4554 0.0369, -0.6601 0.4711 0.0511, -0.6178 0.4819 0.0369, -0.6178 0.4805 0.0353, -0.6289 0.4704 0.0248, -0.655 0.4503 0.0248, -0.6553 0.4664 0.0369, -0.6178 0.4718 0.0248, -0.6178 0.4705 0.0239, -0.6256 0.4581 0.0156, -0.6482 0.4592 0.0248, -0.644 0.444 0.0156, -0.6329 0.4329 0.0098, -0.6492 0.4833 0.0666, -0.6477 0.4806 0.0511, -0.6443 0.4748 0.0369, -0.6393 0.4661 0.0248, -0.6329 0.455 0.0156, -0.6256 0.4424 0.0098, -0.6329 0.4288 0.0098, -0.6334 0.4288 0.0098, -0.6392 0.4502 0.0156, -0.6313 0.4366 0.0098, -0.6288 0.4399 0.0098, -0.6178 0.4591 0.0156, -0.6178 0.4581 0.0152, -0.6178 0.4445 0.0098, 0.6218 -0.4478 0.0098, 0.647 -0.4327 0.0152, 0.648 -0.4327 0.0156, 0.647 -0.4405 0.0156, 0.6595 -0.4327 0.0239, 0.6608 -0.4327 0.0248, 0.6593 -0.4438 0.0248, 0.6695 -0.4327 0.0353, 0.6708 -0.4327 0.0369, 0.669 -0.4464 0.0369, 0.6756 -0.4482 0.0511, 0.6785 -0.449 0.0666, 0.6722 -0.4641 0.0666, 0.634 -0.4934 0.0666, 0.6806 -0.4327 0.0666, 0.68 -0.4327 0.0634, 0.6776 -0.4327 0.0511, 0.6764 -0.4327 0.0487, 0.6333 -0.4905 0.0511, 0.6696 -0.4626 0.0511, 0.6622 -0.4771 0.0666, 0.6315 -0.484 0.0369, 0.6637 -0.4592 0.0369, 0.6601 -0.475 0.0511, 0.6289 -0.4742 0.0248, 0.655 -0.4542 0.0248, 0.6553 -0.4702 0.0369, 0.6256 -0.4619 0.0156, 0.6482 -0.4631 0.0248, 0.644 -0.4478 0.0156, 0.6328 -0.4367 0.0098, 0.6492 -0.4871 0.0666, 0.6477 -0.4845 0.0511, 0.6443 -0.4787 0.0369, 0.6393 -0.4699 0.0248, 0.6329 -0.4589 0.0156, 0.6256 -0.4462 0.0098, 0.6328 -0.4327 0.0098, 0.6334 -0.4327 0.0098, 0.6392 -0.4541 0.0156, 0.6313 -0.4405 0.0098, 0.6288 -0.4437 0.0098, 0.5825 0.3936 0.4213, 0.645 0.3936 0.3659, 0.6415 0.3936 0.3802, 0.6413 0.3936 0.3806, 0.6345 0.3936 0.3938, 0.6343 0.3936 0.3941, 0.6244 0.3936 0.4053, 0.6242 0.3936 0.4054, 0.6119 0.3936 0.414, 0.6117 0.3936 0.414, 0.5976 0.3936 0.4194, 0.5975 0.3936 0.4194, -0.4022 0.3936 0.4213, 0.5825 0.4086 0.4194, -0.4494 0.3936 0.4213, 0.5825 0.4087 0.4194, 0.5825 0.4228 0.414, 0.5825 0.423 0.414, 0.5825 0.4353 0.4054, 0.5825 0.4355 0.4053, 0.5825 0.4453 0.3941, 0.5825 0.4456 0.3938, 0.5825 0.4524 0.3806, 0.5825 0.4526 0.3802, 0.5825 0.4561 0.3659, 0.0413 0.4288 0.0079, 0.6178 0.4288 0.0079, 0.6178 0.4439 0.0098, 0.6178 0.4445 0.0098, 0.6178 0.4581 0.0152, 0.6178 0.4591 0.0156, 0.6178 0.4705 0.0239, 0.6178 0.4718 0.0248, 0.6178 0.4805 0.0353, 0.6178 0.4819 0.0369, 0.6178 0.4875 0.0487, 0.6178 0.4887 0.0511, 0.6178 0.4911 0.0634, 0.6178 0.4917 0.0666, 0.6178 0.4914 0.0785, 0.5933 0.4341 0.4053, 0.5901 0.422 0.414, 0.5864 0.4082 0.4194, 0.5901 0.4067 0.4194, 0.5956 0.4011 0.4194, 0.5932 0.4043 0.4194, 0.5971 0.3975 0.4194, 0.5978 0.4506 0.3802, 0.5986 0.4537 0.3676, 0.5985 0.4537 0.3676, 0.6135 0.4474 0.3687, 0.612 0.4447 0.3802, 0.6135 0.4473 0.3687, 0.6242 0.4353 0.3802, 0.6264 0.4374 0.369, 0.6336 0.4231 0.3802, 0.6363 0.4246 0.3687, 0.6363 0.4245 0.3687, 0.6395 0.4088 0.3802, 0.6426 0.4097 0.3676, 0.6427 0.4096 0.3676, 0.5972 0.419 0.414, 0.6033 0.4143 0.414, 0.6079 0.4083 0.414, 0.6109 0.4012 0.414, 0.6035 0.4299 0.4053, 0.6121 0.4232 0.4053, 0.6188 0.4145 0.4053, 0.623 0.4044 0.4053, 0.5959 0.4438 0.3938, 0.6085 0.4386 0.3938, 0.6193 0.4303 0.3938, 0.6275 0.4196 0.3938, 0.6327 0.407 0.3938, 0.6328 0.4288 0.0098, 0.6328 0.4329 0.0098, 0.6256 0.4581 0.0156, 0.6289 0.4704 0.0248, 0.6315 0.4801 0.0369, 0.6333 0.4866 0.0511, 0.634 0.4895 0.0666, 0.6492 0.4833 0.0666, 0.678 0.4449 0.0802, 0.6803 0.4288 0.0785, 0.6806 0.4288 0.0666, 0.6716 0.4598 0.0813, 0.6779 0.445 0.0802, 0.6785 0.4451 0.0666, 0.6338 0.489 0.0802, 0.6339 0.489 0.0802, 0.6488 0.4827 0.0813, 0.6488 0.4826 0.0813, 0.6617 0.4727 0.0816, 0.68 0.4288 0.0634, 0.6756 0.4443 0.0511, 0.6477 0.4806 0.0511, 0.6622 0.4733 0.0666, 0.6776 0.4288 0.0511, 0.6764 0.4288 0.0487, 0.669 0.4426 0.0369, 0.6443 0.4748 0.0369, 0.6601 0.4711 0.0511, 0.6708 0.4288 0.0369, 0.6695 0.4288 0.0353, 0.6593 0.44 0.0248, 0.6393 0.4661 0.0248, 0.6553 0.4664 0.0369, 0.6608 0.4288 0.0248, 0.6595 0.4288 0.0239, 0.647 0.4367 0.0156, 0.6482 0.4592 0.0248, 0.6329 0.455 0.0156, 0.6218 0.4439 0.0098, 0.6716 0.4599 0.0813, 0.6722 0.4603 0.0666, 0.6696 0.4588 0.0511, 0.6637 0.4554 0.0369, 0.655 0.4503 0.0248, 0.644 0.444 0.0156, 0.6313 0.4366 0.0098, 0.6392 0.4502 0.0156, 0.6256 0.4424 0.0098, 0.6288 0.4399 0.0098, 0.648 0.4288 0.0156, 0.647 0.4288 0.0152, 0.6334 0.4288 0.0098
            ]
        }
        coordIndex [
            0,1,2,-1,2,1,3,-1,3,1,4,-1,4,1,5,-1,4,5,6,-1,6,5,7,-1,6,7,8,-1,8,7,9,-1,8,9,10,-1,10,9,11,-1,10,11,12,-1,12,11,13,-1,12,13,14,-1,14,13,15,-1,14,15,16,-1,16,15,17,-1,16,17,18,-1,17,19,18,-1,18,19,20,-1,18,20,21,-1,22,23,24,-1,25,26,27,-1,28,29,30,-1,31,29,28,-1,27,26,28,-1,32,28,26,-1,33,16,18,-1,16,33,14,-1,14,33,34,-1,14,34,12,-1,12,34,35,-1,12,35,10,-1,10,35,36,-1,10,36,8,-1,8,36,6,-1,6,36,37,-1,6,37,4,-1,4,37,3,-1,3,37,38,-1,3,38,2,-1,39,31,28,-1,40,41,25,-1,25,41,42,-1,25,42,26,-1,26,42,43,-1,26,43,32,-1,44,30,45,-1,45,30,29,-1,45,29,46,-1,46,29,31,-1,46,31,47,-1,39,48,31,-1,31,48,49,-1,31,49,47,-1,47,49,50,-1,47,50,51,-1,24,44,52,-1,52,44,45,-1,52,45,53,-1,53,45,46,-1,53,46,54,-1,54,46,47,-1,54,47,55,-1,55,47,51,-1,56,57,58,-1,58,57,22,-1,22,24,58,-1,58,24,52,-1,58,52,59,-1,59,52,53,-1,59,53,60,-1,60,53,54,-1,60,54,61,-1,61,54,55,-1,61,55,62,-1,23,40,24,-1,24,40,25,-1,24,25,44,-1,44,25,27,-1,44,27,30,-1,30,27,28,-1,56,33,63,-1,63,33,18,-1,63,18,21,-1,51,64,55,-1,55,64,65,-1,55,65,62,-1,62,65,66,-1,62,66,67,-1,56,58,33,-1,33,58,59,-1,33,59,34,-1,34,59,60,-1,34,60,35,-1,35,60,61,-1,35,61,36,-1,36,61,62,-1,36,62,37,-1,37,62,67,-1,37,67,38,-1,68,69,70,-1,71,72,73,-1,74,75,76,-1,77,78,79,-1,80,81,82,-1,1,0,83,-1,7,5,84,-1,84,5,1,-1,19,17,81,-1,81,17,15,-1,81,15,82,-1,82,15,13,-1,82,13,11,-1,20,19,85,-1,85,19,81,-1,85,81,86,-1,86,81,80,-1,86,80,87,-1,87,80,88,-1,1,83,84,-1,84,83,89,-1,84,89,90,-1,78,88,79,-1,79,88,80,-1,79,80,91,-1,91,80,82,-1,91,82,92,-1,92,82,11,-1,89,93,90,-1,90,93,94,-1,90,94,95,-1,75,77,76,-1,76,77,79,-1,76,79,96,-1,96,79,91,-1,96,91,97,-1,97,91,92,-1,94,98,95,-1,95,98,99,-1,95,99,100,-1,72,74,73,-1,73,74,76,-1,73,76,101,-1,101,76,96,-1,101,96,102,-1,102,96,97,-1,99,103,100,-1,100,103,104,-1,100,104,105,-1,102,106,101,-1,101,106,107,-1,101,107,73,-1,73,107,108,-1,73,108,71,-1,9,7,109,-1,109,7,84,-1,109,84,110,-1,110,84,90,-1,110,90,111,-1,111,90,95,-1,111,95,112,-1,112,95,100,-1,112,100,113,-1,113,100,105,-1,113,105,114,-1,114,105,70,-1,114,70,69,-1,69,115,108,-1,108,115,116,-1,108,116,71,-1,106,117,107,-1,107,117,118,-1,107,118,108,-1,108,118,69,-1,117,119,118,-1,118,119,69,-1,104,120,105,-1,105,120,121,-1,105,121,70,-1,70,121,122,-1,70,122,68,-1,11,9,92,-1,92,9,109,-1,92,109,97,-1,97,109,110,-1,97,110,102,-1,102,110,111,-1,102,111,106,-1,106,111,112,-1,106,112,117,-1,117,112,113,-1,117,113,119,-1,119,113,114,-1,119,114,69,-1,28,32,123,-1,123,32,124,-1,125,124,126,-1,126,124,32,-1,126,32,127,-1,127,32,43,-1,127,43,128,-1,128,43,42,-1,128,42,129,-1,129,42,41,-1,129,41,130,-1,130,41,40,-1,130,40,131,-1,131,40,23,-1,131,23,132,-1,132,23,22,-1,132,22,133,-1,133,22,57,-1,133,57,134,-1,134,57,56,-1,134,56,135,-1,135,56,63,-1,135,63,136,-1,136,63,21,-1,28,137,138,-1,139,2,140,-1,140,2,38,-1,140,38,141,-1,141,38,67,-1,141,67,142,-1,142,67,66,-1,142,66,143,-1,143,66,65,-1,143,65,144,-1,144,65,64,-1,144,64,145,-1,145,64,51,-1,145,51,146,-1,146,51,50,-1,146,50,147,-1,147,50,49,-1,147,49,148,-1,148,49,48,-1,148,48,138,-1,138,48,39,-1,138,39,28,-1,149,150,151,-1,151,150,152,-1,152,150,153,-1,153,150,154,-1,153,154,155,-1,155,154,156,-1,155,156,157,-1,157,156,158,-1,157,158,159,-1,159,158,160,-1,159,160,161,-1,161,160,162,-1,161,162,163,-1,163,162,164,-1,163,164,165,-1,165,164,166,-1,165,166,167,-1,166,168,167,-1,167,168,169,-1,167,169,139,-1,170,171,172,-1,69,170,115,-1,115,170,172,-1,115,172,116,-1,116,172,173,-1,116,173,71,-1,71,173,174,-1,71,174,72,-1,72,174,175,-1,72,175,74,-1,74,175,176,-1,74,176,75,-1,75,176,177,-1,75,177,77,-1,77,177,178,-1,77,178,78,-1,78,178,179,-1,78,179,88,-1,88,179,180,-1,88,180,87,-1,87,180,181,-1,87,181,86,-1,86,181,182,-1,86,182,85,-1,85,182,183,-1,85,183,20,-1,20,183,184,-1,184,185,136,-1,136,185,186,-1,186,185,187,-1,187,185,188,-1,187,188,189,-1,189,188,190,-1,189,190,191,-1,191,190,192,-1,191,192,193,-1,193,192,194,-1,193,194,195,-1,195,194,196,-1,195,196,197,-1,197,196,198,-1,197,198,199,-1,199,198,200,-1,199,200,201,-1,200,202,201,-1,201,202,203,-1,201,203,204,-1,205,206,207,-1,208,209,210,-1,125,211,212,-1,213,211,125,-1,210,209,125,-1,214,125,209,-1,215,199,201,-1,199,215,197,-1,197,215,216,-1,197,216,195,-1,195,216,217,-1,195,217,193,-1,193,217,218,-1,193,218,191,-1,191,218,189,-1,189,218,219,-1,189,219,187,-1,187,219,186,-1,186,219,135,-1,186,135,136,-1,126,213,125,-1,220,221,208,-1,208,221,222,-1,208,222,209,-1,209,222,223,-1,209,223,214,-1,224,212,225,-1,225,212,211,-1,225,211,226,-1,226,211,213,-1,226,213,227,-1,126,127,213,-1,213,127,128,-1,213,128,227,-1,227,128,129,-1,227,129,130,-1,207,224,228,-1,228,224,225,-1,228,225,229,-1,229,225,226,-1,229,226,230,-1,230,226,227,-1,230,227,231,-1,231,227,130,-1,232,233,234,-1,234,233,205,-1,205,207,234,-1,234,207,228,-1,234,228,235,-1,235,228,229,-1,235,229,236,-1,236,229,230,-1,236,230,237,-1,237,230,231,-1,237,231,238,-1,206,220,207,-1,207,220,208,-1,207,208,224,-1,224,208,210,-1,224,210,212,-1,212,210,125,-1,232,215,239,-1,239,215,201,-1,239,201,204,-1,130,131,231,-1,231,131,132,-1,231,132,238,-1,238,132,133,-1,238,133,134,-1,232,234,215,-1,215,234,235,-1,215,235,216,-1,216,235,236,-1,216,236,217,-1,217,236,237,-1,217,237,218,-1,218,237,238,-1,218,238,219,-1,219,238,134,-1,219,134,135,-1,143,144,240,-1,241,242,243,-1,137,244,245,-1,246,244,137,-1,243,242,137,-1,138,137,242,-1,247,165,167,-1,165,247,163,-1,163,247,248,-1,163,248,161,-1,161,248,249,-1,161,249,159,-1,159,249,250,-1,159,250,157,-1,157,250,155,-1,155,250,251,-1,155,251,153,-1,153,251,152,-1,152,251,252,-1,152,252,151,-1,253,246,137,-1,145,146,241,-1,241,146,147,-1,241,147,242,-1,242,147,148,-1,242,148,138,-1,254,245,255,-1,255,245,244,-1,255,244,256,-1,256,244,246,-1,256,246,257,-1,253,258,246,-1,246,258,259,-1,246,259,257,-1,257,259,260,-1,257,260,261,-1,240,254,262,-1,262,254,255,-1,262,255,263,-1,263,255,256,-1,263,256,264,-1,264,256,257,-1,264,257,265,-1,265,257,261,-1,141,142,266,-1,266,142,143,-1,143,240,266,-1,266,240,262,-1,266,262,267,-1,267,262,263,-1,267,263,268,-1,268,263,264,-1,268,264,269,-1,269,264,265,-1,269,265,270,-1,144,145,240,-1,240,145,241,-1,240,241,254,-1,254,241,243,-1,254,243,245,-1,245,243,137,-1,141,247,140,-1,140,247,167,-1,140,167,139,-1,261,271,265,-1,265,271,272,-1,265,272,270,-1,270,272,273,-1,270,273,274,-1,141,266,247,-1,247,266,267,-1,247,267,248,-1,248,267,268,-1,248,268,249,-1,249,268,269,-1,249,269,250,-1,250,269,270,-1,250,270,251,-1,251,270,274,-1,251,274,252,-1,275,276,277,-1,278,279,280,-1,281,282,283,-1,284,285,286,-1,287,288,289,-1,150,149,290,-1,156,154,291,-1,291,154,150,-1,168,166,288,-1,288,166,164,-1,288,164,289,-1,289,164,162,-1,289,162,160,-1,169,168,292,-1,292,168,288,-1,292,288,293,-1,293,288,287,-1,293,287,294,-1,294,287,295,-1,150,290,291,-1,291,290,296,-1,291,296,297,-1,285,295,286,-1,286,295,287,-1,286,287,298,-1,298,287,289,-1,298,289,299,-1,299,289,160,-1,296,300,297,-1,297,300,301,-1,297,301,302,-1,282,284,283,-1,283,284,286,-1,283,286,303,-1,303,286,298,-1,303,298,304,-1,304,298,299,-1,301,305,302,-1,302,305,306,-1,302,306,307,-1,279,281,280,-1,280,281,283,-1,280,283,308,-1,308,283,303,-1,308,303,309,-1,309,303,304,-1,306,310,307,-1,307,310,311,-1,307,311,312,-1,309,313,308,-1,308,313,314,-1,308,314,280,-1,280,314,315,-1,280,315,278,-1,158,156,316,-1,316,156,291,-1,316,291,317,-1,317,291,297,-1,317,297,318,-1,318,297,302,-1,318,302,319,-1,319,302,307,-1,319,307,320,-1,320,307,312,-1,320,312,321,-1,321,312,277,-1,321,277,276,-1,276,322,315,-1,315,322,323,-1,315,323,278,-1,313,324,314,-1,314,324,325,-1,314,325,315,-1,315,325,276,-1,324,326,325,-1,325,326,276,-1,311,327,312,-1,312,327,328,-1,312,328,277,-1,277,328,329,-1,277,329,275,-1,160,158,299,-1,299,158,316,-1,299,316,304,-1,304,316,317,-1,304,317,309,-1,309,317,318,-1,309,318,313,-1,313,318,319,-1,313,319,324,-1,324,319,320,-1,324,320,326,-1,326,320,321,-1,326,321,276,-1,172,171,330,-1,331,332,333,-1,334,335,336,-1,337,338,339,-1,340,341,342,-1,185,184,183,-1,190,188,343,-1,343,188,185,-1,202,200,341,-1,341,200,198,-1,341,198,342,-1,342,198,196,-1,342,196,194,-1,203,202,344,-1,344,202,341,-1,344,341,345,-1,345,341,340,-1,345,340,346,-1,346,340,347,-1,185,183,343,-1,343,183,182,-1,343,182,348,-1,338,347,339,-1,339,347,340,-1,339,340,349,-1,349,340,342,-1,349,342,350,-1,350,342,194,-1,182,181,348,-1,348,181,180,-1,348,180,351,-1,335,337,336,-1,336,337,339,-1,336,339,352,-1,352,339,349,-1,352,349,353,-1,353,349,350,-1,180,179,351,-1,351,179,178,-1,351,178,354,-1,332,334,333,-1,333,334,336,-1,333,336,355,-1,355,336,352,-1,355,352,356,-1,356,352,353,-1,178,177,354,-1,354,177,176,-1,354,176,357,-1,356,358,355,-1,355,358,359,-1,355,359,333,-1,333,359,360,-1,333,360,331,-1,192,190,361,-1,361,190,343,-1,361,343,362,-1,362,343,348,-1,362,348,363,-1,363,348,351,-1,363,351,364,-1,364,351,354,-1,364,354,365,-1,365,354,357,-1,365,357,366,-1,366,357,330,-1,366,330,171,-1,171,367,360,-1,360,367,368,-1,360,368,331,-1,358,369,359,-1,359,369,370,-1,359,370,360,-1,360,370,171,-1,369,371,370,-1,370,371,171,-1,176,175,357,-1,357,175,174,-1,357,174,330,-1,330,174,173,-1,330,173,172,-1,194,192,350,-1,350,192,361,-1,350,361,353,-1,353,361,362,-1,353,362,356,-1,356,362,363,-1,356,363,358,-1,358,363,364,-1,358,364,369,-1,369,364,365,-1,369,365,371,-1,371,365,366,-1,371,366,171,-1,372,125,214,-1,204,373,239,-1,239,373,374,-1,239,374,232,-1,232,374,375,-1,232,375,233,-1,233,375,376,-1,233,376,205,-1,205,376,377,-1,205,377,206,-1,206,377,378,-1,206,378,220,-1,220,378,379,-1,220,379,221,-1,221,379,380,-1,221,380,222,-1,222,380,381,-1,222,381,223,-1,223,381,382,-1,223,382,214,-1,214,382,383,-1,214,383,372,-1,384,372,385,-1,253,137,386,-1,386,384,253,-1,253,384,385,-1,253,385,258,-1,258,385,387,-1,258,387,259,-1,259,387,388,-1,259,388,260,-1,260,388,389,-1,260,389,261,-1,261,389,390,-1,261,390,271,-1,271,390,391,-1,271,391,272,-1,272,391,392,-1,272,392,273,-1,273,392,393,-1,273,393,274,-1,274,393,394,-1,274,394,252,-1,252,394,395,-1,252,395,151,-1,151,395,396,-1,397,276,275,-1,398,397,399,-1,399,397,275,-1,399,275,400,-1,400,275,329,-1,400,329,401,-1,401,329,328,-1,401,328,402,-1,402,328,327,-1,402,327,403,-1,403,327,311,-1,403,311,404,-1,404,311,310,-1,404,310,405,-1,405,310,306,-1,405,306,406,-1,406,306,305,-1,406,305,407,-1,407,305,301,-1,407,301,408,-1,408,301,300,-1,408,300,409,-1,409,300,296,-1,409,296,410,-1,410,296,290,-1,410,290,411,-1,411,290,149,-1,392,391,412,-1,413,414,415,-1,372,416,417,-1,418,416,372,-1,415,414,372,-1,385,372,414,-1,419,420,421,-1,420,419,422,-1,422,419,423,-1,422,423,424,-1,424,423,425,-1,424,425,426,-1,426,425,427,-1,426,427,428,-1,428,427,429,-1,429,427,430,-1,429,430,431,-1,431,430,432,-1,432,430,374,-1,432,374,373,-1,383,418,372,-1,390,389,413,-1,413,389,388,-1,413,388,414,-1,414,388,387,-1,414,387,385,-1,433,417,434,-1,434,417,416,-1,434,416,435,-1,435,416,418,-1,435,418,436,-1,383,382,418,-1,418,382,381,-1,418,381,436,-1,436,381,380,-1,436,380,379,-1,412,433,437,-1,437,433,434,-1,437,434,438,-1,438,434,435,-1,438,435,439,-1,439,435,436,-1,439,436,440,-1,440,436,379,-1,394,393,441,-1,441,393,392,-1,392,412,441,-1,441,412,437,-1,441,437,442,-1,442,437,438,-1,442,438,443,-1,443,438,439,-1,443,439,444,-1,444,439,440,-1,444,440,445,-1,391,390,412,-1,412,390,413,-1,412,413,433,-1,433,413,415,-1,433,415,417,-1,417,415,372,-1,394,419,395,-1,395,419,421,-1,395,421,396,-1,379,378,440,-1,440,378,377,-1,440,377,445,-1,445,377,376,-1,445,376,375,-1,394,441,419,-1,419,441,442,-1,419,442,423,-1,423,442,443,-1,423,443,425,-1,425,443,444,-1,425,444,427,-1,427,444,445,-1,427,445,430,-1,430,445,375,-1,430,375,374,-1,446,398,447,-1,401,402,448,-1,403,404,449,-1,405,406,450,-1,451,452,453,-1,454,455,456,-1,457,458,459,-1,459,458,454,-1,460,461,452,-1,452,461,462,-1,452,462,453,-1,453,462,463,-1,453,463,464,-1,411,460,410,-1,410,460,452,-1,410,452,409,-1,409,452,451,-1,409,451,408,-1,408,451,407,-1,454,456,459,-1,459,456,465,-1,459,465,466,-1,406,407,450,-1,450,407,451,-1,450,451,467,-1,467,451,453,-1,467,453,468,-1,468,453,464,-1,465,469,466,-1,466,469,470,-1,466,470,471,-1,404,405,449,-1,449,405,450,-1,449,450,472,-1,472,450,467,-1,472,467,473,-1,473,467,468,-1,470,474,471,-1,471,474,475,-1,471,475,476,-1,402,403,448,-1,448,403,449,-1,448,449,477,-1,477,449,472,-1,477,472,478,-1,478,472,473,-1,475,479,476,-1,476,479,480,-1,476,480,481,-1,478,482,477,-1,477,482,483,-1,477,483,448,-1,448,483,484,-1,448,484,401,-1,485,457,486,-1,486,457,459,-1,486,459,487,-1,487,459,466,-1,487,466,488,-1,488,466,471,-1,488,471,489,-1,489,471,476,-1,489,476,490,-1,490,476,481,-1,490,481,491,-1,491,481,447,-1,491,447,398,-1,398,399,484,-1,484,399,400,-1,484,400,401,-1,482,492,483,-1,483,492,493,-1,483,493,484,-1,484,493,398,-1,492,494,493,-1,493,494,398,-1,480,495,481,-1,481,495,496,-1,481,496,447,-1,447,496,497,-1,447,497,446,-1,464,485,468,-1,468,485,486,-1,468,486,473,-1,473,486,487,-1,473,487,478,-1,478,487,488,-1,478,488,482,-1,482,488,489,-1,482,489,492,-1,492,489,490,-1,492,490,494,-1,494,490,491,-1,494,491,398,-1,455,454,373,-1,373,454,432,-1,432,454,431,-1,431,454,458,-1,431,458,429,-1,429,458,457,-1,429,457,428,-1,428,457,485,-1,428,485,426,-1,426,485,464,-1,426,464,424,-1,424,464,463,-1,424,463,422,-1,422,463,462,-1,422,462,420,-1,420,462,461,-1,420,461,421,-1,461,460,421,-1,421,460,411,-1,421,411,396,-1,
        ]
    }
}
Shape{
    appearance Appearance {
        material  Material {
            diffuseColor 0.6666666666666666 0.6666666666666666 0.6666666666666666
            specularColor 0.4666666666666667 0.4666666666666667 0.4666666666666667
            ambientIntensity 0.6667
            transparency 0.0
            shininess 0.5
        }
    }
    geometry IndexedFaceSet {
        ccw TRUE
        solid FALSE
        coord DEF co Coordinate {
            point [
                -0.9154 0.2835 0.0, -0.5217 0.2835 0.0, -0.9154 -0.2874 0.0, -0.5217 -0.2874 0.0, -0.9154 0.2835 0.063, -0.9154 -0.2874 0.063, -0.6803 0.2835 0.063, -0.6803 -0.2874 0.063, -0.5217 -0.2874 0.0079, -0.5217 -0.043 0.0079, -0.5217 0.2835 0.0079, -0.6697 0.2835 0.0351, -0.6596 0.2835 0.0237, -0.6471 0.2835 0.0151, -0.6767 0.2835 0.0486, -0.6178 0.2835 0.0079, -0.6329 0.2835 0.0097, -0.6596 -0.2874 0.0237, -0.6471 -0.2874 0.0151, -0.6329 -0.2874 0.0097, -0.6178 -0.2874 0.0079, -0.6767 -0.2874 0.0486, -0.6697 -0.2874 0.0351, 0.5216 0.2835 0.0, 0.9153 0.2835 0.0, 0.5216 -0.2874 0.0, 0.9153 -0.2874 0.0, 0.5216 0.2835 0.0079, 0.5216 -0.043 0.0079, 0.5216 -0.2874 0.0079, 0.9153 -0.2874 0.063, 0.9153 0.2835 0.063, 0.6803 -0.2874 0.063, 0.6803 0.2835 0.063, 0.6329 0.2835 0.0097, 0.6471 0.2835 0.0151, 0.6596 0.2835 0.0237, 0.6767 0.2835 0.0486, 0.6696 0.2835 0.0351, 0.6178 0.2835 0.0079, 0.6767 -0.2874 0.0486, 0.6696 -0.2874 0.0351, 0.6596 -0.2874 0.0237, 0.6471 -0.2874 0.0151, 0.6178 -0.2874 0.0079, 0.6329 -0.2874 0.0097
            ]
        }
        coordIndex [
            0,1,2,-1,2,1,3,-1,4,0,5,-1,5,0,2,-1,6,4,7,-1,7,4,5,-1,8,3,9,-1,9,3,1,-1,9,1,10,-1,11,12,0,-1,0,12,13,-1,4,6,0,-1,0,6,14,-1,0,14,11,-1,10,1,15,-1,15,1,0,-1,15,0,16,-1,16,0,13,-1,17,2,18,-1,18,2,19,-1,19,2,20,-1,20,2,3,-1,20,3,8,-1,7,5,21,-1,21,5,2,-1,21,2,22,-1,22,2,17,-1,23,24,25,-1,25,24,26,-1,27,23,28,-1,28,23,25,-1,28,25,29,-1,30,31,32,-1,32,31,33,-1,24,31,26,-1,26,31,30,-1,34,35,24,-1,24,35,36,-1,33,31,37,-1,37,31,24,-1,37,24,38,-1,38,24,36,-1,34,24,39,-1,39,24,23,-1,39,23,27,-1,30,32,26,-1,26,32,40,-1,40,41,26,-1,26,41,42,-1,26,42,43,-1,29,25,44,-1,44,25,26,-1,44,26,45,-1,45,26,43,-1,
        ]
    }
}
Shape{
    appearance Appearance {
        material  Material {
            diffuseColor 1.0 1.0 1.0
            specularColor 0.8784313725490196 0.8784313725490196 0.8784313725490196
            ambientIntensity 1.0
            transparency 0.0
            shininess 0.5
        }
    }
    geometry IndexedFaceSet {
        ccw TRUE
        solid FALSE
        coord DEF co Coordinate {
            point [
                -0.1335 0.0362 0.0472, -0.1642 -0.0425 0.0472, -0.1335 0.0362 0.0079, -0.1642 -0.0425 0.0079, -0.1527 -0.0425 0.0472, -0.1527 -0.0425 0.0079, -0.1447 -0.0204 0.0472, -0.1447 -0.0204 0.0079, -0.1122 -0.0204 0.0472, -0.1122 -0.0204 0.0079, -0.1047 -0.0425 0.0472, -0.1047 -0.0425 0.0079, -0.0932 -0.0425 0.0472, -0.0932 -0.0425 0.0079, -0.1229 0.0362 0.0472, -0.1229 0.0362 0.0079, -0.1148 -0.0118 0.0472, -0.1412 -0.0118 0.0472, -0.1266 0.0211 0.0472, -0.1274 0.0238 0.0472, -0.1279 0.0266 0.0472, -0.1281 0.0266 0.0472, -0.1286 0.0238 0.0472, -0.1293 0.0211 0.0472, -0.1148 -0.0118 0.0079, -0.1412 -0.0118 0.0079, -0.1266 0.0211 0.0079, -0.1274 0.0238 0.0079, -0.1279 0.0266 0.0079, -0.1281 0.0266 0.0079, -0.1286 0.0238 0.0079, -0.1293 0.0211 0.0079, -0.0454 -0.0425 0.0472, -0.024 -0.0425 0.0472, -0.0454 -0.0425 0.0079, -0.024 -0.0425 0.0079, -0.024 0.0362 0.0472, -0.024 0.0362 0.0079, -0.0462 0.0362 0.0472, -0.0462 0.0362 0.0079, -0.0874 -0.0022 0.0472, -0.0874 -0.0022 0.0079, -0.0868 0.0052 0.0079, -0.0868 0.0052 0.0472, -0.0847 0.013 0.0079, -0.0847 0.013 0.0472, -0.081 0.0198 0.0079, -0.081 0.0198 0.0472, -0.0755 0.0259 0.0079, -0.0755 0.0259 0.0472, -0.0754 0.026 0.0079, -0.0754 0.026 0.0472, -0.0668 0.0318 0.0079, -0.0668 0.0318 0.0472, -0.0576 0.035 0.0079, -0.0576 0.035 0.0472, -0.0552 -0.0417 0.0079, -0.0552 -0.0417 0.0472, -0.0642 -0.039 0.0079, -0.0642 -0.039 0.0472, -0.0725 -0.0342 0.0079, -0.0725 -0.0342 0.0472, -0.0789 -0.028 0.0079, -0.0789 -0.028 0.0472, -0.0835 -0.0209 0.0079, -0.0835 -0.0209 0.0472, -0.0863 -0.0127 0.0079, -0.0863 -0.0127 0.0472, -0.0716 0.0165 0.0472, -0.0678 0.0206 0.0472, -0.062 0.0243 0.0472, -0.0555 0.0266 0.0472, -0.0462 0.0276 0.0472, -0.0346 0.0276 0.0472, -0.0346 -0.0339 0.0472, -0.0458 -0.0339 0.0472, -0.0541 -0.0331 0.0472, -0.0607 -0.031 0.0472, -0.0661 -0.0279 0.0472, -0.0705 -0.0235 0.0472, -0.0738 -0.0181 0.0472, -0.0761 -0.0107 0.0472, -0.0768 -0.0024 0.0472, -0.0762 0.0054 0.0472, -0.0743 0.0117 0.0472, -0.0462 0.0276 0.0079, -0.0346 0.0276 0.0079, -0.0555 0.0266 0.0079, -0.062 0.0243 0.0079, -0.0678 0.0206 0.0079, -0.0716 0.0165 0.0079, -0.0743 0.0117 0.0079, -0.0762 0.0054 0.0079, -0.0768 -0.0024 0.0079, -0.0761 -0.0107 0.0079, -0.0738 -0.0181 0.0079, -0.0705 -0.0235 0.0079, -0.0661 -0.0279 0.0079, -0.0607 -0.031 0.0079, -0.0541 -0.0331 0.0079, -0.0458 -0.0339 0.0079, -0.0346 -0.0339 0.0079, -0.0087 -0.0339 0.0472, -0.0087 -0.0425 0.0472, -0.0087 -0.0339 0.0079, -0.0087 -0.0425 0.0079, 0.0336 -0.0425 0.0472, 0.0336 -0.0425 0.0079, 0.0336 0.0362 0.0472, 0.0336 0.0362 0.0079, -0.0067 0.0362 0.0472, -0.0067 0.0362 0.0079, -0.0067 0.0276 0.0472, -0.0067 0.0276 0.0079, 0.023 0.0276 0.0472, 0.023 0.0276 0.0079, 0.023 0.0016 0.0472, 0.023 0.0016 0.0079, -0.0048 0.0016 0.0472, -0.0048 0.0016 0.0079, -0.0048 -0.007 0.0472, -0.0048 -0.007 0.0079, 0.023 -0.007 0.0472, 0.023 -0.007 0.0079, 0.023 -0.0339 0.0472, 0.023 -0.0339 0.0079, 0.049 -0.0298 0.0472, 0.049 -0.0384 0.0472, 0.049 -0.0298 0.0079, 0.049 -0.0384 0.0079, 0.0574 -0.0419 0.0472, 0.0706 -0.0435 0.0472, 0.0706 -0.0435 0.0079, 0.0685 -0.0434 0.0079, 0.0685 -0.0434 0.0472, 0.0653 -0.043 0.0079, 0.0574 -0.0419 0.0079, 0.0753 -0.043 0.0079, 0.0803 -0.0425 0.0472, 0.0803 -0.0425 0.0079, 0.088 -0.0399 0.0472, 0.088 -0.0399 0.0079, 0.0943 -0.0358 0.0472, 0.0943 -0.0358 0.0079, 0.1002 -0.0296 0.0472, 0.1002 -0.0296 0.0079, 0.1044 -0.0221 0.0472, 0.1044 -0.0221 0.0079, 0.1068 -0.0138 0.0472, 0.1068 -0.0138 0.0079, 0.1075 -0.0046 0.0472, 0.1075 -0.0046 0.0079, 0.0675 0.0372 0.0472, 0.0675 0.0372 0.0079, 0.0754 0.0365 0.0079, 0.0754 0.0365 0.0472, 0.0842 0.034 0.0079, 0.0842 0.034 0.0472, 0.0917 0.0297 0.0079, 0.0917 0.0297 0.0472, 0.0988 0.0228 0.0079, 0.0988 0.0228 0.0472, 0.1034 0.0155 0.0079, 0.1034 0.0155 0.0472, 0.1064 0.0066 0.0079, 0.1064 0.0066 0.0472, 0.049 0.0341 0.0472, 0.049 0.0341 0.0079, 0.0581 0.0365 0.0079, 0.0581 0.0365 0.0472, 0.049 0.0235 0.0472, 0.049 0.0235 0.0079, 0.0674 0.0285 0.0472, 0.0674 0.0285 0.0079, 0.0578 0.0273 0.0079, 0.0578 0.0273 0.0472, 0.097 -0.004 0.0472, 0.097 -0.004 0.0079, 0.0966 0.0021 0.0079, 0.0966 0.0021 0.0472, 0.0945 0.0106 0.0079, 0.0945 0.0106 0.0472, 0.0913 0.0166 0.0079, 0.0913 0.0166 0.0472, 0.0865 0.0219 0.0079, 0.0865 0.0219 0.0472, 0.081 0.0255 0.0079, 0.081 0.0255 0.0472, 0.0752 0.0277 0.0079, 0.0752 0.0277 0.0472, 0.0692 -0.0348 0.0472, 0.0692 -0.0348 0.0079, 0.0765 -0.034 0.0079, 0.0765 -0.034 0.0472, 0.0823 -0.0319 0.0079, 0.0823 -0.0319 0.0472, 0.0871 -0.0286 0.0079, 0.0871 -0.0286 0.0472, 0.0908 -0.0248 0.0079, 0.0908 -0.0248 0.0472, 0.094 -0.0193 0.0079, 0.094 -0.0193 0.0472, 0.0962 -0.0125 0.0079, 0.0962 -0.0125 0.0472, 0.0504 -0.0306 0.0079, 0.0504 -0.0306 0.0472, 0.0587 -0.0337 0.0079, 0.0587 -0.0337 0.0472, 0.1143 -0.0339 0.0472, 0.1143 -0.0425 0.0472, 0.1143 -0.0339 0.0079, 0.1143 -0.0425 0.0079, 0.1546 -0.0425 0.0472, 0.1546 -0.0425 0.0079, 0.1546 0.0362 0.0472, 0.1546 0.0362 0.0079, 0.144 0.0362 0.0472, 0.144 0.0362 0.0079, 0.144 -0.0339 0.0472, 0.144 -0.0339 0.0079
            ]
        }
        coordIndex [
            0,1,2,-1,2,1,3,-1,1,4,3,-1,3,4,5,-1,4,6,5,-1,5,6,7,-1,6,8,7,-1,7,8,9,-1,8,10,9,-1,9,10,11,-1,10,12,11,-1,11,12,13,-1,12,14,13,-1,13,14,15,-1,14,0,15,-1,15,0,2,-1,16,8,17,-1,17,8,6,-1,18,14,16,-1,16,14,12,-1,16,12,8,-1,8,12,10,-1,18,19,14,-1,14,19,20,-1,14,20,0,-1,0,20,21,-1,0,21,22,-1,22,23,0,-1,0,23,17,-1,0,17,1,-1,1,17,6,-1,1,6,4,-1,16,17,24,-1,24,17,25,-1,18,16,26,-1,26,16,24,-1,18,26,27,-1,18,27,19,-1,19,27,28,-1,19,28,20,-1,21,20,29,-1,29,20,28,-1,21,29,30,-1,21,30,22,-1,22,30,31,-1,22,31,23,-1,17,23,25,-1,25,23,31,-1,32,33,34,-1,34,33,35,-1,33,36,35,-1,35,36,37,-1,36,38,37,-1,37,38,39,-1,40,41,42,-1,40,42,43,-1,43,42,44,-1,43,44,45,-1,45,44,46,-1,45,46,47,-1,47,46,48,-1,47,48,49,-1,49,48,50,-1,49,50,51,-1,51,50,52,-1,51,52,53,-1,53,52,54,-1,53,54,55,-1,55,54,39,-1,55,39,38,-1,32,34,56,-1,32,56,57,-1,57,56,58,-1,57,58,59,-1,59,58,60,-1,59,60,61,-1,61,60,62,-1,61,62,63,-1,63,62,64,-1,63,64,65,-1,65,64,66,-1,65,66,67,-1,67,66,41,-1,67,41,40,-1,45,47,68,-1,68,47,49,-1,68,49,69,-1,69,49,51,-1,69,51,70,-1,70,51,53,-1,70,53,71,-1,71,53,55,-1,71,55,72,-1,72,55,38,-1,72,38,73,-1,73,38,36,-1,73,36,74,-1,74,36,33,-1,74,33,75,-1,75,33,32,-1,75,32,76,-1,76,32,57,-1,76,57,77,-1,77,57,59,-1,77,59,78,-1,78,59,61,-1,78,61,79,-1,79,61,63,-1,79,63,80,-1,80,63,65,-1,80,65,81,-1,81,65,67,-1,81,67,82,-1,82,67,40,-1,82,40,83,-1,83,40,43,-1,83,43,84,-1,84,43,45,-1,84,45,68,-1,72,73,85,-1,85,73,86,-1,72,85,87,-1,72,87,71,-1,71,87,88,-1,71,88,70,-1,70,88,89,-1,70,89,69,-1,69,89,90,-1,69,90,68,-1,68,90,91,-1,68,91,84,-1,84,91,92,-1,84,92,83,-1,83,92,93,-1,83,93,82,-1,82,93,94,-1,82,94,81,-1,81,94,95,-1,81,95,80,-1,80,95,96,-1,80,96,79,-1,79,96,97,-1,79,97,78,-1,78,97,98,-1,78,98,77,-1,77,98,99,-1,77,99,76,-1,76,99,100,-1,76,100,75,-1,74,75,101,-1,101,75,100,-1,73,74,86,-1,86,74,101,-1,102,103,104,-1,104,103,105,-1,103,106,105,-1,105,106,107,-1,106,108,107,-1,107,108,109,-1,108,110,109,-1,109,110,111,-1,110,112,111,-1,111,112,113,-1,112,114,113,-1,113,114,115,-1,114,116,115,-1,115,116,117,-1,116,118,117,-1,117,118,119,-1,118,120,119,-1,119,120,121,-1,120,122,121,-1,121,122,123,-1,122,124,123,-1,123,124,125,-1,124,102,125,-1,125,102,104,-1,106,103,102,-1,102,124,106,-1,106,124,122,-1,106,122,108,-1,112,110,114,-1,114,110,108,-1,114,108,116,-1,116,108,122,-1,116,122,118,-1,118,122,120,-1,126,127,128,-1,128,127,129,-1,129,127,130,-1,131,132,133,-1,131,133,134,-1,134,133,135,-1,134,135,130,-1,130,135,136,-1,130,136,129,-1,132,131,137,-1,137,131,138,-1,137,138,139,-1,139,138,140,-1,139,140,141,-1,141,140,142,-1,141,142,143,-1,143,142,144,-1,143,144,145,-1,145,144,146,-1,145,146,147,-1,147,146,148,-1,147,148,149,-1,149,148,150,-1,149,150,151,-1,152,153,154,-1,152,154,155,-1,155,154,156,-1,155,156,157,-1,157,156,158,-1,157,158,159,-1,159,158,160,-1,159,160,161,-1,161,160,162,-1,161,162,163,-1,163,162,164,-1,163,164,165,-1,165,164,151,-1,165,151,150,-1,166,167,168,-1,166,168,169,-1,169,168,153,-1,169,153,152,-1,166,170,167,-1,167,170,171,-1,172,173,174,-1,172,174,175,-1,175,174,171,-1,175,171,170,-1,176,177,178,-1,176,178,179,-1,179,178,180,-1,179,180,181,-1,181,180,182,-1,181,182,183,-1,183,182,184,-1,183,184,185,-1,185,184,186,-1,185,186,187,-1,187,186,188,-1,187,188,189,-1,189,188,173,-1,189,173,172,-1,190,191,192,-1,190,192,193,-1,193,192,194,-1,193,194,195,-1,195,194,196,-1,195,196,197,-1,197,196,198,-1,197,198,199,-1,199,198,200,-1,199,200,201,-1,201,200,202,-1,201,202,203,-1,203,202,177,-1,203,177,176,-1,126,128,204,-1,126,204,205,-1,205,204,206,-1,205,206,207,-1,207,206,191,-1,207,191,190,-1,193,131,190,-1,190,131,134,-1,190,134,207,-1,207,134,130,-1,207,130,205,-1,205,130,127,-1,205,127,126,-1,170,166,175,-1,175,166,169,-1,175,169,172,-1,172,169,152,-1,172,152,189,-1,189,152,155,-1,189,155,187,-1,187,155,157,-1,187,157,185,-1,185,157,159,-1,185,159,183,-1,183,159,161,-1,183,161,181,-1,181,161,163,-1,181,163,179,-1,179,163,165,-1,179,165,176,-1,176,165,150,-1,176,150,203,-1,203,150,148,-1,203,148,201,-1,201,148,146,-1,201,146,199,-1,199,146,144,-1,199,144,197,-1,197,144,142,-1,197,142,195,-1,195,142,140,-1,195,140,193,-1,193,140,138,-1,193,138,131,-1,208,209,210,-1,210,209,211,-1,209,212,211,-1,211,212,213,-1,212,214,213,-1,213,214,215,-1,214,216,215,-1,215,216,217,-1,216,218,217,-1,217,218,219,-1,218,208,219,-1,219,208,210,-1,216,214,218,-1,218,214,212,-1,218,212,208,-1,208,212,209,-1,
        ]
    }
}
Shape{
    appearance Appearance {
        material  Material {
            diffuseColor 0.20784313725490197 0.20784313725490197 0.20784313725490197
            specularColor 0.01568627450980392 0.01568627450980392 0.01568627450980392
            ambientIntensity 0.298
            transparency 0.0
            shininess 0.5
        }
    }
    geometry IndexedFaceSet {
        ccw TRUE
        solid FALSE
        coord DEF co Coordinate {
            point [
                -0.1148 -0.0118 0.0079, -0.1412 -0.0118 0.0079, -0.1266 0.0211 0.0079, -0.1293 0.0211 0.0079, -0.1274 0.0238 0.0079, -0.1286 0.0238 0.0079, -0.1279 0.0266 0.0079, -0.1281 0.0266 0.0079, -0.0346 0.0276 0.0079, -0.0346 -0.0339 0.0079, -0.0462 0.0276 0.0079, -0.0458 -0.0339 0.0079, -0.0541 -0.0331 0.0079, -0.0768 -0.0024 0.0079, -0.0762 0.0054 0.0079, -0.0743 0.0117 0.0079, -0.0555 0.0266 0.0079, -0.0607 -0.031 0.0079, -0.0661 -0.0279 0.0079, -0.0705 -0.0235 0.0079, -0.0738 -0.0181 0.0079, -0.0761 -0.0107 0.0079, -0.0716 0.0165 0.0079, -0.0678 0.0206 0.0079, -0.062 0.0243 0.0079
            ]
        }
        coordIndex [
            0,1,2,-1,2,1,3,-1,2,3,4,-1,4,3,5,-1,4,5,6,-1,6,5,7,-1,8,9,10,-1,10,9,11,-1,10,11,12,-1,13,14,10,-1,10,14,15,-1,10,15,16,-1,12,17,10,-1,10,17,18,-1,10,18,19,-1,19,20,10,-1,10,20,21,-1,10,21,13,-1,22,23,15,-1,15,23,24,-1,15,24,16,-1,
        ]
    }
}