#VRML V2.0 utf8
# 3D model generated by kicad-lcsc-manager
# Based on easyeda2kicad.py v1.0.1

Shape{
    appearance Appearance {
        material  Material {
            diffuseColor 0.2549019607843137 0.2549019607843137 0.2549019607843137
            specularColor 0.7529411764705882 0.7529411764705882 0.7529411764705882
            ambientIntensity 1.0
            transparency 1.0
            shininess 0.5
        }
    }
    geometry IndexedFaceSet {
        ccw TRUE
        solid FALSE
        coord DEF co Coordinate {
            point [
                1.9685 -0.4921 0.4331, -1.9685 -0.4921 0.4331, 0.0695 -0.3913 0.4331, 0.2097 -0.3913 0.4331, 0.1046 -0.3913 0.4331, -1.5778 0.355 0.4331, -1.5863 0.3677 0.4331, -0.1063 0.0788 0.4331, 0.4901 -0.181 0.4331, 0.4638 -0.181 0.4331, 0.1063 -0.0787 0.4331, 0.385 -0.3913 0.4331, 0.42 -0.3913 0.4331, 0.3411 -0.181 0.4331, 0.4463 -0.2347 0.4331, 0.3587 -0.2347 0.4331, 0.8937 -0.0787 0.4331, 1.1063 -0.0787 0.4331, 1.5778 -0.2857 0.4331, -0.2415 -0.2123 0.4331, -0.1539 -0.2213 0.4331, -0.2546 -0.2213 0.4331, 0.1063 0.0788 0.4331, 0.3149 -0.181 0.4331, 0.2316 -0.1855 0.4331, 0.2097 -0.181 0.4331, 0.2492 -0.1944 0.4331, 0.2754 -0.2302 0.4331, 0.2667 -0.2123 0.4331, 0.2798 -0.2526 0.4331, 0.2798 -0.3197 0.4331, 0.2754 -0.3421 0.4331, 0.2667 -0.36 0.4331, 0.2492 -0.3779 0.4331, 0.2316 -0.3868 0.4331, -0.0619 -0.2078 0.4331, 0.052 -0.2794 0.4331, -0.0619 -0.2794 0.4331, -0.167 -0.2123 0.4331, 0.1046 -0.181 0.4331, 0.0695 -0.2078 0.4331, 0.052 -0.3063 0.4331, -0.0619 -0.3063 0.4331, -0.0619 -0.3644 0.4331, 0.0695 -0.3644 0.4331, -0.0882 -0.3913 0.4331, 0.0695 -0.181 0.4331, -0.1232 -0.3376 0.4331, -0.1232 -0.2347 0.4331, -0.224 -0.2078 0.4331, -0.1845 -0.2078 0.4331, -0.1495 -0.2347 0.4331, -0.2678 -0.2526 0.4331, -0.1845 -0.3913 0.4331, -0.2634 -0.2347 0.4331, -0.1495 -0.3376 0.4331, -0.2678 -0.3197 0.4331, -0.4605 -0.2078 0.4331, -0.2897 -0.2302 0.4331, -0.2941 -0.2526 0.4331, -0.2546 -0.351 0.4331, -0.1539 -0.351 0.4331, -0.2941 -0.3197 0.4331, -0.4605 -0.3913 0.4331, -0.167 -0.36 0.4331, -0.2897 -0.3421 0.4331, -0.1845 -0.3644 0.4331, -0.2415 -0.36 0.4331, -0.2809 -0.36 0.4331, -0.224 -0.3644 0.4331, -0.224 -0.3913 0.4331, -0.2459 -0.3868 0.4331, -0.2634 -0.3376 0.4331, -0.0882 -0.181 0.4331, -0.1276 -0.36 0.4331, -0.1451 -0.3779 0.4331, -0.1626 -0.3868 0.4331, -0.3291 -0.2078 0.4331, -0.3291 -0.181 0.4331, -0.2634 -0.1944 0.4331, -0.4868 -0.3913 0.4331, -0.1063 -0.0787 0.4331, -0.4868 -0.181 0.4331, -0.8937 -0.0787 0.4331, -0.1626 -0.1855 0.4331, -0.1845 -0.181 0.4331, -0.1451 -0.1944 0.4331, -0.1276 -0.2123 0.4331, -0.2459 -0.1855 0.4331, -1.1063 -0.0787 0.4331, -1.5748 -0.2706 0.4331, -0.224 -0.181 0.4331, -0.2809 -0.2123 0.4331, -0.2634 -0.3779 0.4331, -1.1063 0.0788 0.4331, -1.5748 0.3399 0.4331, -0.8937 0.0788 0.4331, 1.6142 -0.31 0.4331, -1.7269 -0.31 0.4331, -1.6142 -0.31 0.4331, 1.5778 0.355 0.4331, 1.5748 0.3399 0.4331, 1.1063 0.0788 0.4331, 1.5748 -0.2706 0.4331, 1.5863 -0.2985 0.4331, 1.5991 -0.307 0.4331, 1.5863 0.3677 0.4331, 0.8937 0.0788 0.4331, 1.5991 0.3763 0.4331, -1.5991 0.3763 0.4331, -1.6142 0.3793 0.4331, -1.9685 0.4921 0.4331, 1.9685 0.4921 0.4331, 1.6142 0.3793 0.4331, 1.7269 0.3793 0.4331, 1.7547 0.3677 0.4331, 1.742 0.3763 0.4331, 1.7663 0.3399 0.4331, 1.7633 0.355 0.4331, 1.7663 -0.2706 0.4331, 1.7547 -0.2985 0.4331, 1.7633 -0.2857 0.4331, 1.7269 -0.31 0.4331, 1.742 -0.307 0.4331, -1.7633 0.355 0.4331, -1.7663 0.3399 0.4331, -1.7663 -0.2706 0.4331, -1.5863 -0.2985 0.4331, -1.5778 -0.2857 0.4331, -1.5991 -0.307 0.4331, -1.7547 -0.2985 0.4331, -1.742 -0.307 0.4331, -1.7633 -0.2857 0.4331, -1.742 0.3763 0.4331, -1.7547 0.3677 0.4331, -1.7269 0.3793 0.4331, 0.2535 -0.3197 0.4331, 0.2492 -0.3376 0.4331, 0.2404 -0.351 0.4331, 0.2535 -0.2526 0.4331, 0.2097 -0.2078 0.4331, 0.2273 -0.2123 0.4331, 0.2273 -0.36 0.4331, 0.2404 -0.2213 0.4331, 0.2492 -0.2347 0.4331, 0.2097 -0.3644 0.4331, 0.1309 -0.3644 0.4331, 0.1309 -0.2078 0.4331, 0.3631 -0.2526 0.4331, 0.4419 -0.2526 0.4331, 0.4025 -0.3734 0.4331, -1.9685 0.4921 2.2047, -1.9685 -0.4921 2.2047, -1.8898 -0.4134 2.2047, 1.2598 -0.4134 2.2047, 1.9685 -0.4921 2.2047, 1.511 0.0362 2.2047, 1.2598 0.4134 2.2047, 1.5076 0.0 2.2047, 1.9685 0.4921 2.2047, -1.8898 0.4134 2.2047, 1.6167 0.1762 2.2047, 1.6506 0.1894 2.2047, 1.7226 -0.196 2.2047, 1.7584 -0.1893 2.2047, 1.5371 0.1036 2.2047, 1.5209 0.0711 2.2047, 1.5859 0.1571 2.2047, 1.559 0.1326 2.2047, 1.6863 0.196 2.2047, 1.7226 0.196 2.2047, 1.7584 0.1894 2.2047, 1.8231 0.1571 2.2047, 1.7922 0.1762 2.2047, 1.8719 0.1036 2.2047, 1.85 0.1326 2.2047, 1.898 0.0362 2.2047, 1.888 0.0711 2.2047, 1.9013 0.0 2.2047, 1.888 -0.0711 2.2047, 1.898 -0.0362 2.2047, 1.85 -0.1326 2.2047, 1.8719 -0.1036 2.2047, 1.7922 -0.1762 2.2047, 1.8231 -0.1571 2.2047, 1.6863 -0.196 2.2047, 1.6167 -0.1762 2.2047, 1.6506 -0.1893 2.2047, 1.559 -0.1326 2.2047, 1.5859 -0.1571 2.2047, 1.5209 -0.0711 2.2047, 1.5371 -0.1036 2.2047, 1.511 -0.0362 2.2047, 1.898 0.0362 1.811, 1.9013 0.0 1.811, 1.85 0.1326 1.811, 1.8719 0.1036 1.811, 1.888 0.0711 1.811, 1.7584 0.1894 1.811, 1.7922 0.1762 1.811, 1.8231 0.1571 1.811, 1.6863 0.196 1.811, 1.6506 0.1894 1.811, 1.7226 0.196 1.811, 1.559 0.1326 1.811, 1.5859 0.1571 1.811, 1.6167 0.1762 1.811, 1.5371 0.1036 1.811, 1.5209 0.0711 1.811, 1.511 0.0362 1.811, 1.5076 0.0 1.811, 1.511 -0.0362 1.811, 1.559 -0.1326 1.811, 1.5371 -0.1036 1.811, 1.5209 -0.0711 1.811, 1.6506 -0.1893 1.811, 1.6167 -0.1762 1.811, 1.5859 -0.1571 1.811, 1.7226 -0.196 1.811, 1.7584 -0.1893 1.811, 1.6863 -0.196 1.811, 1.85 -0.1326 1.811, 1.8231 -0.1571 1.811, 1.7922 -0.1762 1.811, 1.8719 -0.1036 1.811, 1.888 -0.0711 1.811, 1.898 -0.0362 1.811, 1.5716 -0.4921 1.1917, -0.587 -0.4921 1.5054, -1.4839 -0.4921 1.259, 1.4839 -0.4921 1.259, -0.587 -0.4921 1.8598, 0.5941 -0.4921 1.8598, 1.5074 -0.4921 1.2559, -1.5716 -0.4921 1.1917, 0.5941 -0.4921 1.5054, 1.4839 -0.4921 0.6299, -1.4839 -0.4921 0.6299, -1.5293 -0.4921 0.6421, -1.5074 -0.4921 0.633, -1.5626 -0.4921 0.6753, -1.5481 -0.4921 0.6565, -1.5716 -0.4921 0.6972, -1.5747 -0.4921 0.7207, -1.5747 -0.4921 1.1682, -1.5074 -0.4921 1.2559, -1.5481 -0.4921 1.2324, -1.5626 -0.4921 1.2136, -1.5293 -0.4921 1.2469, 1.5481 -0.4921 1.2324, 1.5293 -0.4921 1.2469, 1.5626 -0.4921 1.2136, 1.5747 -0.4921 1.1682, 1.5747 -0.4921 0.7207, 1.5626 -0.4921 0.6753, 1.5716 -0.4921 0.6972, 1.5293 -0.4921 0.6421, 1.5481 -0.4921 0.6565, 1.5074 -0.4921 0.633, -0.587 0.4921 1.5054, 0.5941 0.4921 1.5054, 0.5941 0.4921 1.8598, -0.587 0.4921 1.8598, 0.5941 0.3347 1.5054, -0.587 0.3347 1.5054, -0.587 0.3347 1.8598, 0.5941 0.3347 1.8598, 1.4839 -0.4527 0.6299, -1.4839 -0.4527 0.6299, -1.5716 -0.4527 0.6972, -1.5747 -0.4527 0.7207, -1.5293 -0.4527 0.6421, -1.5481 -0.4527 0.6565, -1.5626 -0.4527 0.6753, -1.5074 -0.4527 0.633, -1.5747 -0.4527 1.1682, -1.5074 -0.4527 1.2559, -1.4839 -0.4527 1.259, -1.5626 -0.4527 1.2136, -1.5481 -0.4527 1.2324, -1.5293 -0.4527 1.2469, -1.5716 -0.4527 1.1917, 1.4839 -0.4527 1.259, 1.5716 -0.4527 1.1917, 1.5747 -0.4527 1.1682, 1.5293 -0.4527 1.2469, 1.5481 -0.4527 1.2324, 1.5626 -0.4527 1.2136, 1.5074 -0.4527 1.2559, 1.5747 -0.4527 0.7207, 1.5074 -0.4527 0.633, 1.5626 -0.4527 0.6753, 1.5481 -0.4527 0.6565, 1.5293 -0.4527 0.6421, 1.5716 -0.4527 0.6972, 1.4195 -0.4527 0.7415, 1.3763 -0.4527 0.7415, 1.1752 -0.4527 0.7415, -0.1324 -0.4527 1.162, -0.1755 -0.4527 1.162, 1.247 -0.4527 1.162, 1.3045 -0.4527 1.162, -1.1166 -0.4527 1.162, -0.9442 -0.4527 1.162, -0.5491 -0.4527 1.162, -0.4413 -0.4527 1.1262, -0.4054 -0.4527 1.1531, 0.1909 -0.4527 1.1352, 0.2197 -0.4527 1.1531, 0.0832 -0.4527 1.162, -0.7359 -0.4527 1.162, -0.6928 -0.4527 1.162, 1.3476 -0.4527 0.8489, 1.2039 -0.4527 0.8489, -0.4054 -0.4527 0.7504, -0.5491 -0.4527 0.7415, -0.3623 -0.4527 0.7415, 0.0832 -0.4527 0.7415, 0.2556 -0.4527 0.7415, -0.9586 -0.4527 0.7415, -1.1166 -0.4527 0.7415, 0.6507 -0.4527 0.9294, 0.5286 -0.4527 0.9294, 0.5286 -0.4527 0.7415, 0.4855 -0.4527 0.7415, 1.1321 -0.4527 0.7415, 1.0746 -0.4527 0.7415, 1.0746 -0.4527 1.162, 1.0746 -0.4527 1.1083, 1.0459 -0.4527 0.992, 1.0459 -0.4527 0.9383, 0.816 -0.4527 0.7415, 1.0746 -0.4527 0.7952, 0.7585 -0.4527 0.7415, 0.816 -0.4527 1.162, 0.8591 -0.4527 1.1083, 0.8591 -0.4527 0.992, 0.8591 -0.4527 0.7952, 0.8591 -0.4527 0.9383, 0.6579 -0.4527 1.162, 0.3131 -0.4527 0.7415, 0.6938 -0.4527 0.9473, 0.3131 -0.4527 1.162, 0.4855 -0.4527 1.162, 0.6938 -0.4527 1.1531, 0.7226 -0.4527 1.1262, 0.7441 -0.4527 1.0904, 0.7513 -0.4527 1.0636, 0.7513 -0.4527 1.0278, 0.7441 -0.4527 1.001, 0.7226 -0.4527 0.9652, 0.7082 -0.4527 0.7415, -0.0462 -0.4527 0.992, 0.1478 -0.4527 0.8399, 0.349 -0.4527 1.1531, 0.2556 -0.4527 1.162, 0.3777 -0.4527 1.1352, 0.4065 -0.4527 1.0994, 0.4208 -0.4527 1.0636, 0.428 -0.4527 1.0189, 0.1406 -0.4527 0.8846, 0.428 -0.4527 0.8846, 0.4208 -0.4527 0.8399, 0.4065 -0.4527 0.8041, 0.2197 -0.4527 0.7504, 0.3777 -0.4527 0.7683, 0.349 -0.4527 0.7504, 0.1622 -0.4527 0.8041, -0.1324 -0.4527 0.7415, -0.1755 -0.4527 0.7415, 0.1622 -0.4527 1.0994, 0.1406 -0.4527 1.0189, 0.0257 -0.4527 0.7415, 0.1909 -0.4527 0.7683, -0.4772 -0.4527 1.0636, -0.4629 -0.4527 1.0994, 0.0257 -0.4527 1.162, 0.1478 -0.4527 1.0636, -0.1324 -0.4527 0.9562, -0.1324 -0.4527 0.8846, -0.0821 -0.4527 0.9473, -0.4916 -0.4527 0.9115, -0.4916 -0.4527 0.992, -0.4844 -0.4527 1.0368, -0.3192 -0.4527 1.1531, -0.2833 -0.4527 1.1262, -0.973 -0.4527 1.1531, -1.0017 -0.4527 1.1352, -1.404 -0.4527 1.162, -0.3623 -0.4527 1.162, -0.2617 -0.4527 1.0994, -0.2473 -0.4527 1.0636, -0.2401 -0.4527 1.0368, -0.233 -0.4527 0.992, -0.233 -0.4527 0.9115, -0.2401 -0.4527 0.8667, -0.2473 -0.4527 0.8399, -0.2617 -0.4527 0.8041, -0.4413 -0.4527 0.7773, -0.2833 -0.4527 0.7773, -0.3192 -0.4527 0.7504, -0.6928 -0.4527 0.7415, -0.7359 -0.4527 0.7415, -0.4629 -0.4527 0.8041, -0.4772 -0.4527 0.8399, -0.4844 -0.4527 0.8667, -0.5922 -0.4527 0.7415, -0.5922 -0.4527 1.162, -0.6353 -0.4527 1.0278, -0.5922 -0.4527 1.0904, -0.6353 -0.4527 1.0994, -0.858 -0.4527 1.0636, -0.9945 -0.4527 1.0547, -0.9945 -0.4527 1.0368, -0.9011 -0.4527 0.7415, -0.9011 -0.4527 0.7952, -0.9873 -0.4527 0.8041, -0.9586 -0.4527 0.7952, -1.0592 -0.4527 0.8578, -1.0376 -0.4527 1.0278, -0.8149 -0.4527 1.0636, -0.8365 -0.4527 0.9562, -0.8077 -0.4527 0.9204, -0.8796 -0.4527 1.0994, -0.9658 -0.4527 1.0994, -0.8652 -0.4527 1.0815, -0.9442 -0.4527 1.1083, -0.9011 -0.4527 1.1083, -1.0304 -0.4527 1.0994, -0.8724 -0.4527 1.1531, -0.8436 -0.4527 1.1262, -0.9873 -0.4527 1.0815, -1.404 -0.4527 0.7415, -0.9873 -0.4527 1.0099, -1.0161 -0.4527 0.8578, -0.8508 -0.4527 0.9025, -1.0017 -0.4527 0.9562, -0.973 -0.4527 0.9383, -1.0304 -0.4527 0.992, -0.9658 -0.4527 0.992, -0.9011 -0.4527 0.9831, -0.9442 -0.4527 0.9831, -0.8652 -0.4527 0.9741, -0.7933 -0.4527 0.8846, -0.7933 -0.4527 0.8399, -0.8077 -0.4527 0.8041, -1.1813 -0.4527 0.7415, -0.8365 -0.4527 0.7683, -0.8652 -0.4527 0.7504, -0.9945 -0.4527 0.7504, -1.3609 -0.4527 0.7415, -1.052 -0.4527 0.822, -1.3609 -0.4527 1.1083, -1.0089 -0.4527 0.831, -0.8508 -0.4527 0.822, -0.8365 -0.4527 0.8489, -0.8724 -0.4527 0.8041, -0.8365 -0.4527 0.8757, -0.8724 -0.4527 0.9204, -0.9011 -0.4527 0.9294, -0.9442 -0.4527 0.9294, -1.3394 -0.4527 1.162, -0.9083 -0.4527 1.162, -0.8221 -0.4527 1.0904, -1.0376 -0.4527 1.0636, -1.0304 -0.4527 0.7773, -1.1598 -0.4527 1.162, -1.1598 -0.4527 0.8041, -0.4198 -0.4527 0.8131, -0.3982 -0.4527 0.7952, -0.4557 -0.4527 0.9204, -0.4485 -0.4527 0.8667, -0.3623 -0.4527 0.7862, -0.4557 -0.4527 0.9831, -0.2689 -0.4527 0.9204, -0.3264 -0.4527 0.7952, -0.3048 -0.4527 0.8131, -0.2761 -0.4527 0.8667, -0.3623 -0.4527 1.1173, -0.2689 -0.4527 0.9831, -0.3264 -0.4527 1.1083, -0.2761 -0.4527 1.0368, -0.3048 -0.4527 1.0904, -0.4198 -0.4527 1.0904, -0.3982 -0.4527 1.1083, -0.4485 -0.4527 1.0368, 0.2053 -0.4527 1.0815, 0.1909 -0.4527 1.0547, 0.1837 -0.4527 1.0189, 0.3633 -0.4527 0.822, 0.3777 -0.4527 0.8489, 0.3849 -0.4527 0.8846, 0.2268 -0.4527 1.0994, 0.2556 -0.4527 1.1083, 0.1837 -0.4527 0.8846, 0.2556 -0.4527 0.7952, 0.1909 -0.4527 0.8489, 0.2053 -0.4527 0.822, 0.2268 -0.4527 0.8041, 0.3131 -0.4527 0.7952, 0.3418 -0.4527 0.8041, 0.3131 -0.4527 1.1083, 0.3849 -0.4527 1.0189, 0.3777 -0.4527 1.0547, 0.3633 -0.4527 1.0815, 0.3418 -0.4527 1.0994, 0.701 -0.4527 1.0099, 0.6651 -0.4527 0.9831, 0.6866 -0.4527 0.992, 0.7082 -0.4527 1.0368, 0.6866 -0.4527 1.1083, 0.6651 -0.4527 1.1173, 0.701 -0.4527 1.0904, 0.7082 -0.4527 1.0636, 0.5286 -0.4527 1.1173, 0.5286 -0.4527 0.9831, 1.3404 -0.4527 0.8846, 1.2758 -0.4527 1.1262, 1.2111 -0.4527 0.8846, -1.3609 -0.4921 1.1083, -1.3609 -0.4921 0.7415, -1.404 -0.4921 0.7415, -1.404 -0.4921 1.162, -1.3394 -0.4921 1.162, -1.1598 -0.4921 0.8041, -1.1598 -0.4921 1.162, -1.1166 -0.4921 1.162, -1.1166 -0.4921 0.7415, -1.1813 -0.4921 0.7415, -0.9658 -0.4921 0.992, -0.973 -0.4921 0.9383, -0.9442 -0.4921 0.9831, -0.8436 -0.4921 1.1262, -0.8724 -0.4921 1.1531, -0.8796 -0.4921 1.0994, -0.9011 -0.4921 0.9294, -0.9011 -0.4921 0.9831, -1.0376 -0.4921 1.0636, -1.0376 -0.4921 1.0278, -0.9945 -0.4921 1.0368, -0.8652 -0.4921 0.9741, -0.9873 -0.4921 1.0099, -1.0017 -0.4921 0.9562, -1.0304 -0.4921 0.992, -0.9945 -0.4921 1.0547, -1.0592 -0.4921 0.8578, -1.052 -0.4921 0.822, -1.0161 -0.4921 0.8578, -0.9442 -0.4921 0.9294, -0.9011 -0.4921 0.7952, -0.8652 -0.4921 0.7504, -0.8724 -0.4921 0.8041, -1.0304 -0.4921 0.7773, -0.9873 -0.4921 0.8041, -1.0089 -0.4921 0.831, -0.9011 -0.4921 0.7415, -0.9586 -0.4921 0.7952, -0.9586 -0.4921 0.7415, -0.973 -0.4921 1.1531, -0.9442 -0.4921 1.1083, -0.9442 -0.4921 1.162, -0.9011 -0.4921 1.1083, -0.9083 -0.4921 1.162, -0.8724 -0.4921 0.9204, -0.8365 -0.4921 0.9562, -0.8365 -0.4921 0.8757, -0.7933 -0.4921 0.8846, -0.8077 -0.4921 0.9204, -0.8508 -0.4921 0.9025, -0.8077 -0.4921 0.8041, -0.7933 -0.4921 0.8399, -0.8365 -0.4921 0.8489, -0.8508 -0.4921 0.822, -0.8365 -0.4921 0.7683, -0.9945 -0.4921 0.7504, -0.8221 -0.4921 1.0904, -0.8652 -0.4921 1.0815, -1.0304 -0.4921 1.0994, -0.9873 -0.4921 1.0815, -1.0017 -0.4921 1.1352, -0.9658 -0.4921 1.0994, -0.858 -0.4921 1.0636, -0.8149 -0.4921 1.0636, -0.7359 -0.4921 1.162, -0.7359 -0.4921 0.7415, -0.6928 -0.4921 0.7415, -0.6928 -0.4921 1.162, -0.6353 -0.4921 1.0994, -0.6353 -0.4921 1.0278, -0.5922 -0.4921 1.0904, -0.5922 -0.4921 1.162, -0.5491 -0.4921 1.162, -0.5922 -0.4921 0.7415, -0.5491 -0.4921 0.7415, -0.4198 -0.4921 0.8131, -0.4054 -0.4921 0.7504, -0.3982 -0.4921 0.7952, -0.4198 -0.4921 1.0904, -0.4054 -0.4921 1.1531, -0.4413 -0.4921 1.1262, -0.4413 -0.4921 0.7773, -0.4629 -0.4921 0.8041, -0.4772 -0.4921 0.8399, -0.4485 -0.4921 0.8667, -0.2689 -0.4921 0.9204, -0.233 -0.4921 0.9115, -0.2689 -0.4921 0.9831, -0.2761 -0.4921 0.8667, -0.2401 -0.4921 0.8667, -0.233 -0.4921 0.992, -0.3982 -0.4921 1.1083, -0.3623 -0.4921 1.1173, -0.2473 -0.4921 1.0636, -0.2761 -0.4921 1.0368, -0.2401 -0.4921 1.0368, -0.3192 -0.4921 1.1531, -0.3623 -0.4921 1.162, -0.3264 -0.4921 1.1083, -0.3048 -0.4921 1.0904, -0.2833 -0.4921 1.1262, -0.4916 -0.4921 0.992, -0.4557 -0.4921 0.9831, -0.4844 -0.4921 1.0368, -0.4485 -0.4921 1.0368, -0.4772 -0.4921 1.0636, -0.4629 -0.4921 1.0994, -0.4844 -0.4921 0.8667, -0.4557 -0.4921 0.9204, -0.4916 -0.4921 0.9115, -0.2617 -0.4921 1.0994, -0.2473 -0.4921 0.8399, -0.2617 -0.4921 0.8041, -0.3048 -0.4921 0.8131, -0.2833 -0.4921 0.7773, -0.3192 -0.4921 0.7504, -0.3264 -0.4921 0.7952, -0.3623 -0.4921 0.7862, -0.3623 -0.4921 0.7415, -0.0462 -0.4921 0.992, 0.0257 -0.4921 1.162, -0.1324 -0.4921 0.9562, -0.0821 -0.4921 0.9473, -0.1324 -0.4921 0.8846, -0.1755 -0.4921 0.7415, 0.0257 -0.4921 0.7415, 0.0832 -0.4921 0.7415, 0.0832 -0.4921 1.162, -0.1324 -0.4921 1.162, -0.1755 -0.4921 1.162, -0.1324 -0.4921 0.7415, 0.1837 -0.4921 1.0189, 0.1909 -0.4921 1.0547, 0.1478 -0.4921 1.0636, 0.3633 -0.4921 0.822, 0.3418 -0.4921 0.8041, 0.3777 -0.4921 0.7683, 0.1406 -0.4921 1.0189, 0.1622 -0.4921 1.0994, 0.2556 -0.4921 0.7952, 0.3131 -0.4921 0.7415, 0.3131 -0.4921 0.7952, 0.2268 -0.4921 0.8041, 0.1909 -0.4921 0.7683, 0.2197 -0.4921 0.7504, 0.2556 -0.4921 0.7415, 0.2556 -0.4921 1.1083, 0.3131 -0.4921 1.1083, 0.2556 -0.4921 1.162, 0.3849 -0.4921 0.8846, 0.3777 -0.4921 0.8489, 0.4208 -0.4921 0.8399, 0.428 -0.4921 0.8846, 0.3849 -0.4921 1.0189, 0.428 -0.4921 1.0189, 0.3418 -0.4921 1.0994, 0.349 -0.4921 1.1531, 0.3777 -0.4921 1.0547, 0.4208 -0.4921 1.0636, 0.3777 -0.4921 1.1352, 0.3633 -0.4921 1.0815, 0.3131 -0.4921 1.162, 0.349 -0.4921 0.7504, 0.2053 -0.4921 1.0815, 0.2268 -0.4921 1.0994, 0.1909 -0.4921 1.1352, 0.2197 -0.4921 1.1531, 0.4065 -0.4921 1.0994, 0.4065 -0.4921 0.8041, 0.2053 -0.4921 0.822, 0.1622 -0.4921 0.8041, 0.1909 -0.4921 0.8489, 0.1478 -0.4921 0.8399, 0.1837 -0.4921 0.8846, 0.1406 -0.4921 0.8846, 0.4855 -0.4921 0.7415, 0.5286 -0.4921 0.7415, 0.5286 -0.4921 0.9294, 0.7082 -0.4921 0.7415, 0.7585 -0.4921 0.7415, 0.6938 -0.4921 0.9473, 0.6507 -0.4921 0.9294, 0.701 -0.4921 1.0904, 0.7441 -0.4921 1.0904, 0.7226 -0.4921 1.1262, 0.7082 -0.4921 1.0636, 0.6938 -0.4921 1.1531, 0.6866 -0.4921 1.1083, 0.6651 -0.4921 1.1173, 0.7226 -0.4921 0.9652, 0.701 -0.4921 1.0099, 0.6866 -0.4921 0.992, 0.6651 -0.4921 0.9831, 0.5286 -0.4921 0.9831, 0.4855 -0.4921 1.162, 0.7441 -0.4921 1.001, 0.6579 -0.4921 1.162, 0.5286 -0.4921 1.1173, 0.7082 -0.4921 1.0368, 0.7513 -0.4921 1.0636, 0.7513 -0.4921 1.0278, 0.8591 -0.4921 0.992, 0.8591 -0.4921 1.1083, 0.816 -0.4921 1.162, 0.8591 -0.4921 0.9383, 0.816 -0.4921 0.7415, 1.0746 -0.4921 0.7415, 0.8591 -0.4921 0.7952, 1.0459 -0.4921 0.9383, 1.0459 -0.4921 0.992, 1.0746 -0.4921 1.1083, 1.0746 -0.4921 1.162, 1.0746 -0.4921 0.7952, 1.4195 -0.4921 0.7415, 1.3045 -0.4921 1.162, 1.3404 -0.4921 0.8846, 1.2039 -0.4921 0.8489, 1.1321 -0.4921 0.7415, 1.1752 -0.4921 0.7415, 1.2111 -0.4921 0.8846, 1.3763 -0.4921 0.7415, 1.3476 -0.4921 0.8489, 1.247 -0.4921 1.162, 1.2758 -0.4921 1.1262, 0.5941 -0.3346 1.5054, -0.587 -0.3346 1.5054, -0.587 -0.3346 1.8598, 0.5941 -0.3346 1.8598, -1.6707 0.3793 0.2756, -1.6852 0.3793 0.2776, -1.7269 0.3793 0.3319, -1.6142 0.3793 0.3319, -1.6218 0.3793 0.3037, -1.6308 0.3793 0.292, -1.6161 0.3793 0.3173, -1.6424 0.3793 0.2831, -1.656 0.3793 0.2775, -1.7194 0.3793 0.3039, -1.7104 0.3793 0.2922, -1.6987 0.3793 0.2831, -1.7249 0.3793 0.3173, -1.5863 0.3677 0.3319, -1.5991 0.3763 0.3319, -1.5748 0.3399 0.3319, -1.5778 0.355 0.3319, -1.7361 0.355 0.2664, -1.7508 0.355 0.2856, -1.7434 0.3677 0.2899, -1.7395 0.3763 0.3135, -1.742 0.3763 0.3319, -1.689 0.3763 0.263, -1.6348 0.3763 0.2701, -1.7062 0.3763 0.2701, -1.721 0.3763 0.2814, -1.62 0.3763 0.2814, -1.6945 0.355 0.2424, -1.7169 0.355 0.2516, -1.7126 0.3677 0.259, -1.581 0.355 0.3079, -1.5781 0.3399 0.3072, -1.5902 0.355 0.2856, -1.6465 0.355 0.2424, -1.6487 0.3677 0.2506, -1.6242 0.355 0.2516, -1.605 0.355 0.2664, -1.611 0.3677 0.2724, -1.5976 0.3677 0.2899, -1.6087 0.3763 0.2962, -1.6015 0.3763 0.3135, -1.5892 0.3677 0.3102, -1.6284 0.3677 0.259, -1.652 0.3763 0.263, -1.6923 0.3677 0.2506, -1.6705 0.355 0.2392, -1.6705 0.3677 0.2478, -1.7301 0.3677 0.2724, -1.6705 0.3763 0.2605, -1.7519 0.3677 0.3102, -1.7601 0.355 0.3079, -1.7324 0.3763 0.2962, -1.7547 0.3677 0.3319, -1.7633 0.355 0.3319, -1.7663 0.3399 0.3319, -1.763 0.3399 0.3072, -1.7534 0.3399 0.2841, -1.7382 0.3399 0.2643, -1.7184 0.3399 0.249, -1.6953 0.3399 0.2395, -1.6705 0.3399 0.2362, -1.6458 0.3399 0.2395, -1.6227 0.3399 0.249, -1.6028 0.3399 0.2643, -1.5876 0.3399 0.2841, -1.6705 -0.2706 0.2362, -1.6458 -0.2706 0.2395, -1.6227 -0.2706 0.249, -1.6028 -0.2706 0.2643, -1.5876 -0.2706 0.2841, -1.5781 -0.2706 0.3072, -1.5748 -0.2706 0.3319, -1.6953 -0.2706 0.2395, -1.7184 -0.2706 0.249, -1.7382 -0.2706 0.2643, -1.7534 -0.2706 0.2841, -1.763 -0.2706 0.3072, -1.7663 -0.2706 0.3319, -1.7547 -0.2985 0.3319, -1.742 -0.307 0.3319, -1.7269 -0.31 0.3319, -1.7633 -0.2857 0.3319, -1.6704 -0.31 0.2756, -1.6558 -0.31 0.2776, -1.6142 -0.31 0.3319, -1.7192 -0.31 0.3037, -1.7103 -0.31 0.292, -1.7249 -0.31 0.3173, -1.6987 -0.31 0.2831, -1.685 -0.31 0.2775, -1.6217 -0.31 0.3039, -1.6306 -0.31 0.2922, -1.6424 -0.31 0.2831, -1.6161 -0.31 0.3173, -1.5991 -0.307 0.3319, -1.5863 -0.2985 0.3319, -1.5778 -0.2857 0.3319, -1.7434 -0.2985 0.2899, -1.7395 -0.307 0.3135, -1.7519 -0.2985 0.3102, -1.6087 -0.307 0.2962, -1.6015 -0.307 0.3135, -1.6284 -0.2985 0.259, -1.611 -0.2985 0.2724, -1.6348 -0.307 0.2701, -1.6465 -0.2857 0.2424, -1.6242 -0.2857 0.2516, -1.62 -0.307 0.2814, -1.5976 -0.2985 0.2899, -1.7126 -0.2985 0.259, -1.6923 -0.2985 0.2506, -1.7062 -0.307 0.2701, -1.6705 -0.2985 0.2478, -1.6487 -0.2985 0.2506, -1.6705 -0.307 0.2605, -1.7508 -0.2857 0.2856, -1.689 -0.307 0.263, -1.7601 -0.2857 0.3079, -1.7361 -0.2857 0.2664, -1.7169 -0.2857 0.2516, -1.6945 -0.2857 0.2424, -1.6705 -0.2857 0.2392, -1.7324 -0.307 0.2962, -1.7301 -0.2985 0.2724, -1.5892 -0.2985 0.3102, -1.581 -0.2857 0.3079, -1.652 -0.307 0.263, -1.5902 -0.2857 0.2856, -1.721 -0.307 0.2814, -1.605 -0.2857 0.2664, 1.5748 0.3399 0.3319, 1.5748 -0.2706 0.3319, 1.5863 0.3677 0.3319, 1.5778 0.355 0.3319, 1.6142 0.3793 0.3319, 1.5991 0.3763 0.3319, 1.7434 0.3677 0.2899, 1.7395 0.3763 0.3135, 1.7519 0.3677 0.3102, 1.763 0.3399 0.3072, 1.7601 0.355 0.3079, 1.7633 0.355 0.3319, 1.7184 0.3399 0.249, 1.6953 0.3399 0.2395, 1.7169 0.355 0.2516, 1.7663 0.3399 0.3319, 1.7508 0.355 0.2856, 1.7382 0.3399 0.2643, 1.7361 0.355 0.2664, 1.6987 0.3793 0.2831, 1.7062 0.3763 0.2701, 1.689 0.3763 0.263, 1.6227 0.3399 0.249, 1.6028 0.3399 0.2643, 1.6242 0.355 0.2516, 1.6705 0.3399 0.2362, 1.6458 0.3399 0.2395, 1.6705 0.355 0.2392, 1.6087 0.3763 0.2962, 1.62 0.3763 0.2814, 1.5976 0.3677 0.2899, 1.6705 0.3677 0.2478, 1.6487 0.3677 0.2506, 1.6705 0.3763 0.2605, 1.6015 0.3763 0.3135, 1.6217 0.3793 0.3039, 1.581 0.355 0.3079, 1.5781 0.3399 0.3072, 1.5892 0.3677 0.3102, 1.6161 0.3793 0.3173, 1.5902 0.355 0.2856, 1.5876 0.3399 0.2841, 1.6284 0.3677 0.259, 1.611 0.3677 0.2724, 1.6348 0.3763 0.2701, 1.652 0.3763 0.263, 1.6923 0.3677 0.2506, 1.6465 0.355 0.2424, 1.6945 0.355 0.2424, 1.7126 0.3677 0.259, 1.7301 0.3677 0.2724, 1.7324 0.3763 0.2962, 1.7547 0.3677 0.3319, 1.742 0.3763 0.3319, 1.7534 0.3399 0.2841, 1.7269 0.3793 0.3319, 1.7249 0.3793 0.3173, 1.721 0.3763 0.2814, 1.7192 0.3793 0.3037, 1.7103 0.3793 0.292, 1.685 0.3793 0.2775, 1.6704 0.3793 0.2756, 1.6558 0.3793 0.2776, 1.605 0.355 0.2664, 1.6424 0.3793 0.2831, 1.6306 0.3793 0.2922, 1.7663 -0.2706 0.3319, 1.6705 -0.2706 0.2362, 1.6953 -0.2706 0.2395, 1.7184 -0.2706 0.249, 1.7382 -0.2706 0.2643, 1.7534 -0.2706 0.2841, 1.763 -0.2706 0.3072, 1.6458 -0.2706 0.2395, 1.6227 -0.2706 0.249, 1.6028 -0.2706 0.2643, 1.5876 -0.2706 0.2841, 1.5781 -0.2706 0.3072, 1.7062 -0.307 0.2701, 1.721 -0.307 0.2814, 1.7104 -0.31 0.2922, 1.6087 -0.307 0.2962, 1.6015 -0.307 0.3135, 1.5892 -0.2985 0.3102, 1.6465 -0.2857 0.2424, 1.6487 -0.2985 0.2506, 1.6242 -0.2857 0.2516, 1.581 -0.2857 0.3079, 1.5976 -0.2985 0.2899, 1.5902 -0.2857 0.2856, 1.611 -0.2985 0.2724, 1.605 -0.2857 0.2664, 1.6705 -0.2857 0.2392, 1.6705 -0.2985 0.2478, 1.62 -0.307 0.2814, 1.6424 -0.31 0.2831, 1.6308 -0.31 0.292, 1.7601 -0.2857 0.3079, 1.7519 -0.2985 0.3102, 1.7508 -0.2857 0.2856, 1.7126 -0.2985 0.259, 1.6945 -0.2857 0.2424, 1.7169 -0.2857 0.2516, 1.742 -0.307 0.3319, 1.7269 -0.31 0.3319, 1.7395 -0.307 0.3135, 1.7249 -0.31 0.3173, 1.7547 -0.2985 0.3319, 1.7633 -0.2857 0.3319, 1.7324 -0.307 0.2962, 1.7194 -0.31 0.3039, 1.7434 -0.2985 0.2899, 1.7361 -0.2857 0.2664, 1.6284 -0.2985 0.259, 1.7301 -0.2985 0.2724, 1.6348 -0.307 0.2701, 1.652 -0.307 0.263, 1.656 -0.31 0.2775, 1.6705 -0.307 0.2605, 1.689 -0.307 0.263, 1.6852 -0.31 0.2776, 1.6923 -0.2985 0.2506, 1.6161 -0.31 0.3173, 1.5991 -0.307 0.3319, 1.6142 -0.31 0.3319, 1.5863 -0.2985 0.3319, 1.6987 -0.31 0.2831, 1.6707 -0.31 0.2756, 1.6218 -0.31 0.3037, 1.5778 -0.2857 0.3319
            ]
        }
        coordIndex [
            0,1,2,-1,3,0,4,-1,4,0,2,-1,5,6,7,-1,8,9,10,-1,0,11,12,-1,13,14,15,-1,8,10,16,-1,13,9,14,-1,8,16,17,-1,12,8,18,-1,9,13,10,-1,19,20,21,-1,10,22,16,-1,23,24,25,-1,23,26,24,-1,23,27,28,-1,23,28,26,-1,27,23,29,-1,23,11,29,-1,11,30,29,-1,11,31,30,-1,11,32,31,-1,11,33,32,-1,11,34,33,-1,11,3,34,-1,0,3,11,-1,35,36,37,-1,38,20,19,-1,4,36,39,-1,40,39,36,-1,4,41,36,-1,42,41,43,-1,4,44,41,-1,41,44,43,-1,44,4,2,-1,45,2,1,-1,25,39,10,-1,23,10,13,-1,46,39,40,-1,35,40,36,-1,47,48,45,-1,49,50,38,-1,51,48,52,-1,19,49,38,-1,45,1,53,-1,21,20,51,-1,21,51,54,-1,54,51,52,-1,55,56,47,-1,57,58,59,-1,60,55,61,-1,62,63,57,-1,64,60,61,-1,62,65,63,-1,66,67,64,-1,68,63,65,-1,67,66,69,-1,70,63,71,-1,53,1,70,-1,64,67,60,-1,72,55,60,-1,55,72,56,-1,52,47,56,-1,48,73,45,-1,47,52,48,-1,45,74,47,-1,74,45,75,-1,75,45,76,-1,45,53,76,-1,1,63,70,-1,77,58,57,-1,77,78,79,-1,1,80,63,-1,73,81,46,-1,82,83,81,-1,81,10,46,-1,73,84,85,-1,73,86,84,-1,86,73,87,-1,73,48,87,-1,78,88,79,-1,89,82,90,-1,85,81,73,-1,88,78,91,-1,58,77,92,-1,77,79,92,-1,59,62,57,-1,82,89,83,-1,71,63,93,-1,68,93,63,-1,91,81,85,-1,94,95,96,-1,97,0,12,-1,98,99,1,-1,82,81,78,-1,82,80,90,-1,96,95,7,-1,100,101,22,-1,81,83,96,-1,17,102,103,-1,101,103,102,-1,12,104,105,-1,7,81,96,-1,22,106,100,-1,46,10,39,-1,101,107,22,-1,16,22,107,-1,23,25,10,-1,91,78,81,-1,108,106,109,-1,107,101,102,-1,109,110,111,-1,109,111,108,-1,112,108,111,-1,112,113,108,-1,113,112,114,-1,115,116,112,-1,112,116,114,-1,112,117,118,-1,112,118,115,-1,117,112,119,-1,112,0,119,-1,120,121,0,-1,0,121,119,-1,0,97,122,-1,0,123,120,-1,0,122,123,-1,12,105,97,-1,104,12,18,-1,17,103,8,-1,18,8,103,-1,6,22,7,-1,106,6,109,-1,7,95,5,-1,106,22,6,-1,124,125,111,-1,80,1,99,-1,95,94,90,-1,94,89,90,-1,126,1,111,-1,127,128,80,-1,80,128,90,-1,80,99,129,-1,80,129,127,-1,130,131,1,-1,1,131,98,-1,1,126,132,-1,1,132,130,-1,111,125,126,-1,133,134,111,-1,111,134,124,-1,110,135,111,-1,111,135,133,-1,136,137,138,-1,139,140,141,-1,136,138,142,-1,139,143,144,-1,141,143,139,-1,139,136,140,-1,145,140,136,-1,146,147,145,-1,136,142,145,-1,145,147,140,-1,148,149,150,-1,151,1,152,-1,1,151,111,-1,153,152,154,-1,154,152,155,-1,156,157,158,-1,159,151,157,-1,151,152,153,-1,157,151,160,-1,151,153,160,-1,157,161,162,-1,157,154,158,-1,163,155,164,-1,165,157,166,-1,157,156,166,-1,167,157,168,-1,157,165,168,-1,157,167,161,-1,157,169,170,-1,162,169,157,-1,171,159,170,-1,157,170,159,-1,172,159,173,-1,159,171,173,-1,174,159,175,-1,159,172,175,-1,176,159,177,-1,159,174,177,-1,159,176,178,-1,159,178,155,-1,179,155,180,-1,155,178,180,-1,181,155,182,-1,155,179,182,-1,183,155,184,-1,155,181,184,-1,155,183,164,-1,185,154,163,-1,155,163,154,-1,186,154,187,-1,154,185,187,-1,188,154,189,-1,154,186,189,-1,190,154,191,-1,154,188,191,-1,158,154,192,-1,154,190,192,-1,193,194,178,-1,195,196,174,-1,197,176,177,-1,173,198,199,-1,175,172,200,-1,201,169,202,-1,203,171,170,-1,204,205,167,-1,161,206,162,-1,207,168,165,-1,168,207,204,-1,165,166,208,-1,208,207,165,-1,156,209,166,-1,208,166,209,-1,210,156,158,-1,156,210,209,-1,167,205,161,-1,168,204,167,-1,206,202,162,-1,205,206,161,-1,201,170,169,-1,202,169,162,-1,198,171,203,-1,203,170,201,-1,172,173,199,-1,173,171,198,-1,175,200,195,-1,172,199,200,-1,174,196,177,-1,175,195,174,-1,197,193,176,-1,196,197,177,-1,178,176,193,-1,211,210,158,-1,212,213,191,-1,214,192,190,-1,186,215,216,-1,188,189,217,-1,218,163,219,-1,220,187,185,-1,221,222,184,-1,183,223,164,-1,224,181,182,-1,181,224,221,-1,182,179,225,-1,225,224,182,-1,180,226,179,-1,225,179,226,-1,194,180,178,-1,180,194,226,-1,184,222,183,-1,181,221,184,-1,223,219,164,-1,222,223,183,-1,218,185,163,-1,219,163,164,-1,215,187,220,-1,220,185,218,-1,189,186,216,-1,186,187,215,-1,188,217,212,-1,189,216,217,-1,191,213,190,-1,188,212,191,-1,214,211,192,-1,213,214,190,-1,158,192,211,-1,212,217,216,-1,226,194,206,-1,215,213,212,-1,212,216,215,-1,213,220,214,-1,220,213,215,-1,214,220,218,-1,218,219,211,-1,211,214,218,-1,210,219,223,-1,219,210,211,-1,221,207,208,-1,222,209,223,-1,206,205,226,-1,204,224,225,-1,201,197,203,-1,194,193,202,-1,199,195,200,-1,196,195,198,-1,198,203,196,-1,199,198,195,-1,197,201,193,-1,196,203,197,-1,194,202,206,-1,193,201,202,-1,205,225,226,-1,224,204,207,-1,225,205,204,-1,207,221,224,-1,222,208,209,-1,222,221,208,-1,209,210,223,-1,227,0,155,-1,228,229,230,-1,152,231,232,-1,233,155,230,-1,152,1,234,-1,230,232,235,-1,152,232,155,-1,0,236,237,-1,0,237,1,-1,238,1,239,-1,1,237,239,-1,240,1,241,-1,1,238,241,-1,1,242,243,-1,1,240,242,-1,243,244,1,-1,229,152,245,-1,244,234,1,-1,246,152,247,-1,152,234,247,-1,152,248,245,-1,152,246,248,-1,152,229,231,-1,231,229,228,-1,232,230,155,-1,230,235,228,-1,249,155,250,-1,155,233,250,-1,155,251,227,-1,155,249,251,-1,252,0,227,-1,253,0,252,-1,254,0,255,-1,0,253,255,-1,256,0,257,-1,0,254,257,-1,236,0,258,-1,0,256,258,-1,112,159,155,-1,112,155,0,-1,259,111,151,-1,260,111,259,-1,159,261,262,-1,159,112,260,-1,111,260,112,-1,260,261,159,-1,259,151,262,-1,159,262,151,-1,259,263,260,-1,263,259,264,-1,262,265,264,-1,262,264,259,-1,260,266,261,-1,266,260,263,-1,261,265,262,-1,265,261,266,-1,237,236,267,-1,267,268,237,-1,269,270,243,-1,271,272,241,-1,273,242,240,-1,268,274,239,-1,238,239,274,-1,237,268,239,-1,238,271,241,-1,238,274,271,-1,272,273,240,-1,241,272,240,-1,269,243,242,-1,273,269,242,-1,244,243,270,-1,270,275,244,-1,276,277,229,-1,278,279,246,-1,280,245,248,-1,275,281,234,-1,247,234,281,-1,244,275,234,-1,247,278,246,-1,247,281,278,-1,279,280,248,-1,246,279,248,-1,276,229,245,-1,280,276,245,-1,230,229,277,-1,277,282,230,-1,283,284,252,-1,285,286,249,-1,287,227,251,-1,282,288,233,-1,250,233,288,-1,230,282,233,-1,250,285,249,-1,250,288,285,-1,286,287,251,-1,249,286,251,-1,283,252,227,-1,287,283,227,-1,253,252,284,-1,284,289,253,-1,290,267,236,-1,291,292,257,-1,293,258,256,-1,289,294,255,-1,254,255,294,-1,253,289,255,-1,254,291,257,-1,254,294,291,-1,292,293,256,-1,257,292,256,-1,290,236,258,-1,293,290,258,-1,293,267,290,-1,267,293,292,-1,295,296,294,-1,291,296,297,-1,298,277,299,-1,295,294,289,-1,288,282,285,-1,282,300,286,-1,286,285,282,-1,286,301,287,-1,301,286,300,-1,280,279,277,-1,280,277,276,-1,302,303,277,-1,304,305,306,-1,307,308,309,-1,277,310,311,-1,301,283,287,-1,312,313,296,-1,314,315,316,-1,296,291,294,-1,272,271,268,-1,271,274,268,-1,317,267,318,-1,268,319,320,-1,292,291,297,-1,321,322,323,-1,284,283,301,-1,267,323,324,-1,284,301,295,-1,292,297,267,-1,295,289,284,-1,325,326,267,-1,297,325,267,-1,296,313,297,-1,327,328,300,-1,327,300,282,-1,329,330,300,-1,326,331,267,-1,332,326,325,-1,331,333,267,-1,282,334,327,-1,335,336,329,-1,328,329,300,-1,329,328,335,-1,325,300,330,-1,337,332,330,-1,325,330,332,-1,330,338,337,-1,334,282,339,-1,340,267,324,-1,333,331,341,-1,282,342,343,-1,282,343,339,-1,334,339,344,-1,334,344,345,-1,334,345,346,-1,334,347,348,-1,334,346,347,-1,334,348,331,-1,331,348,349,-1,331,349,350,-1,331,350,341,-1,351,267,333,-1,323,267,351,-1,321,323,351,-1,352,317,353,-1,343,342,354,-1,355,282,309,-1,282,355,342,-1,343,354,356,-1,343,356,357,-1,343,358,359,-1,343,357,358,-1,360,352,353,-1,343,359,324,-1,324,359,361,-1,324,361,362,-1,324,362,363,-1,317,318,364,-1,324,363,365,-1,324,365,366,-1,340,318,267,-1,324,366,340,-1,367,353,317,-1,268,368,369,-1,355,309,308,-1,309,352,370,-1,370,307,309,-1,360,371,352,-1,267,317,372,-1,367,317,373,-1,316,315,268,-1,304,374,375,-1,298,376,277,-1,352,371,377,-1,298,378,376,-1,277,376,282,-1,282,376,309,-1,352,377,370,-1,267,372,268,-1,373,317,364,-1,368,268,372,-1,379,368,372,-1,380,379,372,-1,304,381,382,-1,304,382,383,-1,304,383,374,-1,384,385,299,-1,305,304,375,-1,386,302,387,-1,388,278,281,-1,299,389,384,-1,277,304,389,-1,299,277,389,-1,299,385,390,-1,299,390,391,-1,299,392,393,-1,299,391,392,-1,299,393,369,-1,381,304,315,-1,369,393,394,-1,369,394,395,-1,369,395,396,-1,369,396,397,-1,398,315,314,-1,369,397,399,-1,369,399,400,-1,268,369,316,-1,369,400,316,-1,401,402,268,-1,398,403,315,-1,404,315,403,-1,405,315,404,-1,381,315,405,-1,275,388,281,-1,389,304,306,-1,406,401,268,-1,315,406,268,-1,304,277,407,-1,401,408,311,-1,406,409,408,-1,410,311,408,-1,277,311,407,-1,411,412,413,-1,410,407,311,-1,414,319,268,-1,406,408,401,-1,415,416,417,-1,302,418,419,-1,420,421,422,-1,423,424,425,-1,420,411,413,-1,426,423,427,-1,428,387,302,-1,310,429,430,-1,386,303,302,-1,426,424,423,-1,424,431,425,-1,431,411,425,-1,411,431,412,-1,270,432,275,-1,413,433,420,-1,418,434,435,-1,436,418,437,-1,436,438,418,-1,433,439,440,-1,433,440,420,-1,439,441,440,-1,420,440,442,-1,420,442,421,-1,420,422,310,-1,402,310,443,-1,310,422,443,-1,402,443,444,-1,402,444,445,-1,268,446,272,-1,402,445,447,-1,268,320,446,-1,402,447,448,-1,268,402,414,-1,402,448,414,-1,449,320,319,-1,269,273,450,-1,320,451,418,-1,438,419,418,-1,450,446,452,-1,453,454,455,-1,416,415,456,-1,416,456,454,-1,416,454,453,-1,453,455,434,-1,434,455,457,-1,434,457,435,-1,458,459,460,-1,460,435,458,-1,435,460,418,-1,418,460,437,-1,388,461,278,-1,461,279,278,-1,310,277,462,-1,277,303,462,-1,310,462,429,-1,420,310,463,-1,310,430,463,-1,464,302,419,-1,302,464,428,-1,450,432,269,-1,465,451,320,-1,269,432,270,-1,432,388,275,-1,461,466,279,-1,302,320,418,-1,461,467,466,-1,279,466,277,-1,277,466,302,-1,446,273,272,-1,465,320,449,-1,450,273,446,-1,468,469,470,-1,470,471,468,-1,469,472,470,-1,472,473,470,-1,474,475,476,-1,477,474,476,-1,475,474,472,-1,478,474,479,-1,478,479,480,-1,479,481,482,-1,482,480,479,-1,474,478,472,-1,472,478,473,-1,483,473,484,-1,473,478,484,-1,485,473,483,-1,486,487,488,-1,489,490,491,-1,486,488,492,-1,488,493,492,-1,494,495,488,-1,496,497,494,-1,498,494,497,-1,498,495,494,-1,495,493,488,-1,493,495,499,-1,489,491,500,-1,499,500,491,-1,501,491,502,-1,499,491,501,-1,502,503,504,-1,504,505,502,-1,505,501,502,-1,501,493,499,-1,506,507,508,-1,507,506,509,-1,510,511,512,-1,513,511,514,-1,513,512,511,-1,513,514,509,-1,514,507,509,-1,507,514,515,-1,516,517,518,-1,452,519,520,-1,452,520,450,-1,450,520,521,-1,450,521,432,-1,432,521,522,-1,432,522,388,-1,388,522,523,-1,388,523,461,-1,461,523,524,-1,461,524,467,-1,467,524,525,-1,467,525,466,-1,466,525,526,-1,466,526,302,-1,302,526,527,-1,302,527,320,-1,320,527,528,-1,320,528,446,-1,446,528,519,-1,446,519,452,-1,519,522,521,-1,526,525,524,-1,519,523,522,-1,527,526,524,-1,524,519,528,-1,528,527,524,-1,524,523,519,-1,521,520,519,-1,529,530,531,-1,532,533,534,-1,531,535,536,-1,537,538,539,-1,540,536,535,-1,529,541,542,-1,542,530,529,-1,543,541,539,-1,544,537,539,-1,545,546,547,-1,531,548,535,-1,549,550,551,-1,552,553,554,-1,555,556,557,-1,548,531,530,-1,558,559,560,-1,561,562,559,-1,563,540,535,-1,563,564,540,-1,565,566,567,-1,568,567,564,-1,569,570,571,-1,569,571,572,-1,551,573,572,-1,553,574,556,-1,547,546,554,-1,552,554,546,-1,553,552,574,-1,574,557,556,-1,555,549,556,-1,555,550,549,-1,550,573,551,-1,573,569,572,-1,565,571,570,-1,570,566,565,-1,567,568,565,-1,568,564,563,-1,575,532,576,-1,533,561,534,-1,541,543,542,-1,543,539,538,-1,537,544,577,-1,577,578,579,-1,544,578,577,-1,579,580,558,-1,578,580,579,-1,580,559,558,-1,560,559,562,-1,562,561,533,-1,534,576,532,-1,576,581,575,-1,575,581,582,-1,583,584,585,-1,583,585,586,-1,587,588,589,-1,587,589,590,-1,590,589,591,-1,589,592,593,-1,589,593,591,-1,594,595,596,-1,597,598,599,-1,600,594,601,-1,602,601,603,-1,604,605,606,-1,607,608,604,-1,609,606,605,-1,610,611,598,-1,612,613,614,-1,615,616,611,-1,617,618,615,-1,618,619,615,-1,620,621,622,-1,621,623,622,-1,623,624,622,-1,625,624,623,-1,597,625,623,-1,626,603,627,-1,627,620,628,-1,627,621,620,-1,625,597,599,-1,598,597,610,-1,598,611,616,-1,615,611,617,-1,619,618,629,-1,629,613,612,-1,618,613,629,-1,614,606,609,-1,613,606,614,-1,604,608,605,-1,630,607,631,-1,607,630,608,-1,631,632,633,-1,607,632,631,-1,634,632,635,-1,633,632,634,-1,634,636,637,-1,635,636,634,-1,595,636,596,-1,637,636,595,-1,594,600,595,-1,594,603,601,-1,602,603,626,-1,626,627,628,-1,638,639,640,-1,641,640,642,-1,640,643,642,-1,644,645,638,-1,644,638,641,-1,638,646,639,-1,647,648,640,-1,640,641,638,-1,648,643,640,-1,642,643,649,-1,650,651,652,-1,653,654,655,-1,652,656,650,-1,657,652,651,-1,658,659,660,-1,661,662,663,-1,663,664,658,-1,665,666,667,-1,668,669,670,-1,671,668,670,-1,671,672,668,-1,671,673,672,-1,666,674,675,-1,676,672,677,-1,675,674,678,-1,678,674,679,-1,666,675,680,-1,666,680,667,-1,660,681,654,-1,682,683,684,-1,685,665,667,-1,676,686,679,-1,678,679,686,-1,686,676,677,-1,677,672,673,-1,653,687,669,-1,687,670,669,-1,687,653,655,-1,655,654,681,-1,681,660,659,-1,658,664,659,-1,658,661,663,-1,662,688,689,-1,661,688,662,-1,689,690,691,-1,688,690,689,-1,691,692,693,-1,690,692,691,-1,693,692,656,-1,656,692,650,-1,685,683,665,-1,651,682,657,-1,657,682,684,-1,684,683,685,-1,694,695,696,-1,697,698,699,-1,697,699,700,-1,701,702,703,-1,704,702,701,-1,703,705,706,-1,705,707,706,-1,708,709,710,-1,711,700,699,-1,700,712,696,-1,700,711,712,-1,694,696,713,-1,709,708,714,-1,713,696,712,-1,715,713,716,-1,713,712,716,-1,705,715,707,-1,716,707,715,-1,706,701,703,-1,704,717,718,-1,704,718,702,-1,719,717,714,-1,717,719,718,-1,717,709,714,-1,711,699,710,-1,708,710,699,-1,720,721,722,-1,720,722,723,-1,724,725,726,-1,720,727,728,-1,721,729,730,-1,730,722,721,-1,722,724,723,-1,727,720,723,-1,723,724,726,-1,725,731,726,-1,732,733,734,-1,735,736,737,-1,735,738,736,-1,739,732,740,-1,734,738,740,-1,734,740,732,-1,733,741,742,-1,738,735,740,-1,733,742,734,-1,742,741,738,-1,736,738,741,-1,420,582,581,-1,420,581,411,-1,411,581,576,-1,411,576,425,-1,425,576,534,-1,425,534,423,-1,423,534,561,-1,423,561,427,-1,427,561,559,-1,427,559,426,-1,426,559,580,-1,426,580,424,-1,424,580,578,-1,424,578,431,-1,431,578,544,-1,431,544,412,-1,412,544,539,-1,412,539,413,-1,413,539,541,-1,413,541,433,-1,433,541,529,-1,433,529,439,-1,439,529,531,-1,439,531,441,-1,441,531,536,-1,441,536,440,-1,440,536,540,-1,440,540,442,-1,442,540,564,-1,442,564,421,-1,421,564,567,-1,421,567,422,-1,422,567,566,-1,422,566,443,-1,443,566,570,-1,443,570,444,-1,444,570,569,-1,444,569,445,-1,445,569,573,-1,445,573,447,-1,447,573,550,-1,447,550,448,-1,448,550,555,-1,448,555,414,-1,414,555,557,-1,414,557,319,-1,319,557,574,-1,319,574,449,-1,449,574,552,-1,449,552,465,-1,465,552,546,-1,465,546,451,-1,451,546,545,-1,451,545,418,-1,418,545,547,-1,418,547,434,-1,434,547,554,-1,434,554,453,-1,453,554,553,-1,453,553,416,-1,416,553,556,-1,416,556,417,-1,417,556,549,-1,417,549,415,-1,415,549,551,-1,415,551,456,-1,456,551,572,-1,456,572,454,-1,454,572,571,-1,454,571,455,-1,455,571,565,-1,455,565,457,-1,457,565,568,-1,457,568,435,-1,435,568,563,-1,435,563,458,-1,458,563,535,-1,458,535,459,-1,459,535,548,-1,459,548,460,-1,460,548,530,-1,460,530,437,-1,437,530,542,-1,437,542,436,-1,436,542,543,-1,436,543,438,-1,438,543,538,-1,438,538,419,-1,419,538,537,-1,419,537,464,-1,464,537,577,-1,464,577,428,-1,428,577,579,-1,428,579,387,-1,387,579,558,-1,387,558,386,-1,386,558,560,-1,386,560,303,-1,303,560,562,-1,303,562,462,-1,462,562,533,-1,462,533,429,-1,429,533,532,-1,429,532,430,-1,430,532,575,-1,430,575,463,-1,463,575,582,-1,463,582,420,-1,311,586,585,-1,311,585,401,-1,401,585,584,-1,401,584,402,-1,402,584,583,-1,402,583,310,-1,310,583,586,-1,310,586,311,-1,304,591,593,-1,304,593,315,-1,315,593,592,-1,315,592,406,-1,406,592,589,-1,406,589,409,-1,409,589,588,-1,409,588,408,-1,408,588,587,-1,408,587,410,-1,410,587,590,-1,410,590,407,-1,407,590,591,-1,407,591,304,-1,381,628,620,-1,381,620,382,-1,382,620,622,-1,382,622,383,-1,383,622,624,-1,383,624,374,-1,374,624,625,-1,374,625,375,-1,375,625,599,-1,375,599,305,-1,305,599,598,-1,305,598,306,-1,306,598,616,-1,306,616,389,-1,389,616,615,-1,389,615,384,-1,384,615,619,-1,384,619,385,-1,385,619,629,-1,385,629,390,-1,390,629,612,-1,390,612,391,-1,391,612,614,-1,391,614,392,-1,392,614,609,-1,392,609,393,-1,393,609,605,-1,393,605,394,-1,394,605,608,-1,394,608,395,-1,395,608,630,-1,395,630,396,-1,396,630,631,-1,396,631,397,-1,397,631,633,-1,397,633,399,-1,399,633,634,-1,399,634,400,-1,400,634,637,-1,400,637,316,-1,316,637,595,-1,316,595,314,-1,314,595,600,-1,314,600,398,-1,398,600,601,-1,398,601,403,-1,403,601,602,-1,403,602,404,-1,404,602,626,-1,404,626,405,-1,405,626,628,-1,405,628,381,-1,485,623,621,-1,485,621,473,-1,473,621,627,-1,473,627,470,-1,470,627,603,-1,470,603,471,-1,471,603,594,-1,471,594,468,-1,468,594,596,-1,468,596,469,-1,469,596,636,-1,469,636,472,-1,472,636,635,-1,472,635,475,-1,475,635,632,-1,475,632,476,-1,476,632,607,-1,476,607,477,-1,477,607,604,-1,477,604,474,-1,474,604,606,-1,474,606,479,-1,479,606,613,-1,479,613,481,-1,481,613,618,-1,481,618,482,-1,482,618,617,-1,482,617,480,-1,480,617,611,-1,480,611,478,-1,478,611,610,-1,478,610,484,-1,484,610,597,-1,484,597,483,-1,483,597,623,-1,483,623,485,-1,379,642,649,-1,379,649,368,-1,368,649,643,-1,368,643,369,-1,369,643,648,-1,369,648,299,-1,299,648,647,-1,299,647,298,-1,298,647,640,-1,298,640,378,-1,378,640,639,-1,378,639,376,-1,376,639,646,-1,376,646,309,-1,309,646,638,-1,309,638,352,-1,352,638,645,-1,352,645,317,-1,317,645,644,-1,317,644,372,-1,372,644,641,-1,372,641,380,-1,380,641,642,-1,380,642,379,-1,308,685,667,-1,308,667,355,-1,355,667,680,-1,355,680,342,-1,342,680,675,-1,342,675,354,-1,354,675,678,-1,354,678,356,-1,356,678,686,-1,356,686,357,-1,357,686,677,-1,357,677,358,-1,358,677,673,-1,358,673,359,-1,359,673,671,-1,359,671,361,-1,361,671,670,-1,361,670,362,-1,362,670,687,-1,362,687,363,-1,363,687,655,-1,363,655,365,-1,365,655,681,-1,365,681,366,-1,366,681,659,-1,366,659,340,-1,340,659,664,-1,340,664,318,-1,318,664,663,-1,318,663,364,-1,364,663,662,-1,364,662,373,-1,373,662,689,-1,373,689,367,-1,367,689,691,-1,367,691,353,-1,353,691,693,-1,353,693,360,-1,360,693,656,-1,360,656,371,-1,371,656,652,-1,371,652,377,-1,377,652,657,-1,377,657,370,-1,370,657,684,-1,370,684,307,-1,307,684,685,-1,307,685,308,-1,501,666,665,-1,501,665,493,-1,493,665,683,-1,493,683,492,-1,492,683,682,-1,492,682,486,-1,486,682,651,-1,486,651,487,-1,487,651,650,-1,487,650,488,-1,488,650,692,-1,488,692,494,-1,494,692,690,-1,494,690,496,-1,496,690,688,-1,496,688,497,-1,497,688,661,-1,497,661,498,-1,498,661,658,-1,498,658,495,-1,495,658,660,-1,495,660,499,-1,499,660,654,-1,499,654,500,-1,500,654,653,-1,500,653,489,-1,489,653,669,-1,489,669,490,-1,490,669,668,-1,490,668,491,-1,491,668,672,-1,491,672,502,-1,502,672,676,-1,502,676,503,-1,503,676,679,-1,503,679,504,-1,504,679,674,-1,504,674,505,-1,505,674,666,-1,505,666,501,-1,321,700,696,-1,321,696,322,-1,322,696,695,-1,322,695,323,-1,323,695,694,-1,323,694,324,-1,324,694,713,-1,324,713,343,-1,343,713,715,-1,343,715,339,-1,339,715,705,-1,339,705,344,-1,344,705,703,-1,344,703,345,-1,345,703,702,-1,345,702,346,-1,346,702,718,-1,346,718,347,-1,347,718,719,-1,347,719,348,-1,348,719,714,-1,348,714,349,-1,349,714,708,-1,349,708,350,-1,350,708,699,-1,350,699,341,-1,341,699,698,-1,341,698,333,-1,333,698,697,-1,333,697,351,-1,351,697,700,-1,351,700,321,-1,515,712,711,-1,515,711,507,-1,507,711,710,-1,507,710,508,-1,508,710,709,-1,508,709,506,-1,506,709,717,-1,506,717,509,-1,509,717,704,-1,509,704,513,-1,513,704,701,-1,513,701,512,-1,512,701,706,-1,512,706,510,-1,510,706,707,-1,510,707,511,-1,511,707,716,-1,511,716,514,-1,514,716,712,-1,514,712,515,-1,337,726,731,-1,337,731,332,-1,332,731,725,-1,332,725,326,-1,326,725,724,-1,326,724,331,-1,331,724,722,-1,331,722,334,-1,334,722,730,-1,334,730,327,-1,327,730,729,-1,327,729,328,-1,328,729,721,-1,328,721,335,-1,335,721,720,-1,335,720,336,-1,336,720,728,-1,336,728,329,-1,329,728,727,-1,329,727,330,-1,330,727,723,-1,330,723,338,-1,338,723,726,-1,338,726,337,-1,300,741,733,-1,300,733,301,-1,301,733,732,-1,301,732,295,-1,295,732,739,-1,295,739,296,-1,296,739,740,-1,296,740,312,-1,312,740,735,-1,312,735,313,-1,313,735,737,-1,313,737,297,-1,297,737,736,-1,297,736,325,-1,325,736,741,-1,325,741,300,-1,516,734,742,-1,516,742,517,-1,517,742,738,-1,517,738,518,-1,518,738,734,-1,518,734,516,-1,228,235,743,-1,743,744,228,-1,231,228,744,-1,744,745,231,-1,232,231,745,-1,745,746,232,-1,235,232,746,-1,746,743,235,-1,747,748,749,-1,750,751,752,-1,750,753,751,-1,750,754,755,-1,752,754,750,-1,756,749,757,-1,755,747,750,-1,749,758,757,-1,749,756,759,-1,748,758,749,-1,750,747,749,-1,135,110,749,-1,749,110,750,-1,6,760,761,-1,750,110,109,-1,762,763,95,-1,95,763,5,-1,5,760,6,-1,763,760,5,-1,109,761,750,-1,6,761,109,-1,764,765,766,-1,759,767,749,-1,767,768,749,-1,769,758,748,-1,754,770,755,-1,771,772,757,-1,773,754,752,-1,774,775,776,-1,777,778,779,-1,780,781,782,-1,783,784,779,-1,785,773,786,-1,753,761,787,-1,760,787,761,-1,750,761,753,-1,788,786,787,-1,789,783,782,-1,762,778,777,-1,770,790,755,-1,777,779,785,-1,791,792,774,-1,780,792,793,-1,764,794,775,-1,769,748,795,-1,796,765,797,-1,798,756,772,-1,799,797,800,-1,759,798,767,-1,801,800,802,-1,797,799,796,-1,767,796,768,-1,756,798,759,-1,800,797,802,-1,768,796,799,-1,765,796,766,-1,803,802,797,-1,798,766,767,-1,757,772,756,-1,797,765,803,-1,767,766,796,-1,766,794,764,-1,804,803,765,-1,772,794,798,-1,758,771,757,-1,764,804,765,-1,798,794,766,-1,775,794,776,-1,805,804,764,-1,776,772,771,-1,747,795,748,-1,764,775,805,-1,772,776,794,-1,774,776,791,-1,806,805,775,-1,771,769,791,-1,769,771,758,-1,775,774,806,-1,771,791,776,-1,792,791,793,-1,807,806,774,-1,795,793,769,-1,755,790,747,-1,792,808,807,-1,769,793,791,-1,793,781,780,-1,807,774,792,-1,795,790,781,-1,790,795,747,-1,792,780,808,-1,795,781,793,-1,781,789,782,-1,809,808,780,-1,789,790,770,-1,751,786,752,-1,782,809,780,-1,790,789,781,-1,783,789,784,-1,810,809,782,-1,770,773,784,-1,773,770,754,-1,782,783,810,-1,770,784,789,-1,779,784,785,-1,811,810,783,-1,752,786,773,-1,751,753,787,-1,783,779,811,-1,773,785,784,-1,785,788,777,-1,778,811,779,-1,751,787,786,-1,786,788,785,-1,760,763,788,-1,787,760,788,-1,762,777,763,-1,788,763,777,-1,812,807,808,-1,809,813,808,-1,812,808,813,-1,809,810,814,-1,814,813,809,-1,815,810,811,-1,810,815,814,-1,778,816,811,-1,815,811,816,-1,778,762,817,-1,817,816,778,-1,762,818,817,-1,819,807,812,-1,819,820,806,-1,806,807,819,-1,805,820,821,-1,820,805,806,-1,822,804,821,-1,805,821,804,-1,822,823,803,-1,803,804,822,-1,802,823,824,-1,823,802,803,-1,802,824,801,-1,824,126,125,-1,824,125,801,-1,124,801,125,-1,135,768,133,-1,134,799,800,-1,749,768,135,-1,134,133,799,-1,768,799,133,-1,124,800,801,-1,134,800,124,-1,130,825,826,-1,827,98,131,-1,824,828,126,-1,126,828,132,-1,132,825,130,-1,828,825,132,-1,131,826,827,-1,130,826,131,-1,829,830,831,-1,827,832,833,-1,827,834,832,-1,827,835,836,-1,833,835,827,-1,837,831,838,-1,836,829,827,-1,831,839,838,-1,831,837,840,-1,830,839,831,-1,827,829,831,-1,99,98,831,-1,831,98,827,-1,128,818,90,-1,99,841,129,-1,127,842,843,-1,831,841,99,-1,127,129,842,-1,841,842,129,-1,128,843,818,-1,127,843,128,-1,762,90,818,-1,90,762,95,-1,844,845,846,-1,847,848,837,-1,849,850,851,-1,841,831,840,-1,840,837,848,-1,852,814,853,-1,847,854,855,-1,856,857,858,-1,859,860,861,-1,844,846,862,-1,858,863,835,-1,825,846,826,-1,828,823,864,-1,826,845,827,-1,846,825,864,-1,828,864,825,-1,865,862,821,-1,824,823,828,-1,865,820,866,-1,867,812,868,-1,812,813,868,-1,869,844,870,-1,871,855,872,-1,814,815,853,-1,857,859,863,-1,860,849,873,-1,874,816,817,-1,842,871,843,-1,872,817,818,-1,843,872,818,-1,823,822,864,-1,866,820,819,-1,864,822,862,-1,845,869,834,-1,827,845,834,-1,826,846,845,-1,864,862,846,-1,822,821,862,-1,869,845,844,-1,869,875,832,-1,865,870,844,-1,834,869,832,-1,862,865,844,-1,821,820,865,-1,832,875,833,-1,870,875,869,-1,870,866,856,-1,833,875,858,-1,866,870,865,-1,867,819,812,-1,858,875,856,-1,870,856,875,-1,856,867,857,-1,833,858,835,-1,856,866,867,-1,819,867,866,-1,863,858,857,-1,863,861,836,-1,857,868,859,-1,835,863,836,-1,868,857,867,-1,852,813,814,-1,861,863,859,-1,861,873,829,-1,852,860,859,-1,836,861,829,-1,859,868,852,-1,813,852,868,-1,873,861,860,-1,873,851,830,-1,860,853,849,-1,829,873,830,-1,853,860,852,-1,876,815,816,-1,851,854,839,-1,873,849,851,-1,849,876,850,-1,830,851,839,-1,849,853,876,-1,815,876,853,-1,854,851,850,-1,854,847,838,-1,874,855,850,-1,839,854,838,-1,850,876,874,-1,816,874,876,-1,848,847,871,-1,850,855,854,-1,855,871,847,-1,838,847,837,-1,874,817,872,-1,855,874,872,-1,848,842,841,-1,843,871,872,-1,841,840,848,-1,842,848,871,-1,103,877,878,-1,103,101,877,-1,106,879,880,-1,877,101,100,-1,881,882,113,-1,113,882,108,-1,879,108,882,-1,879,106,108,-1,877,100,880,-1,100,106,880,-1,883,884,885,-1,886,887,888,-1,889,890,891,-1,888,892,886,-1,893,894,895,-1,896,897,898,-1,899,900,901,-1,902,903,904,-1,905,906,907,-1,908,909,910,-1,911,912,905,-1,877,913,914,-1,915,907,913,-1,880,879,915,-1,880,913,877,-1,882,881,916,-1,911,916,912,-1,917,918,914,-1,919,920,921,-1,919,922,909,-1,898,923,908,-1,901,924,899,-1,925,902,904,-1,897,926,923,-1,891,895,889,-1,883,927,928,-1,929,885,930,-1,893,887,931,-1,930,884,932,-1,885,929,887,-1,888,887,929,-1,886,931,887,-1,884,928,933,-1,930,885,884,-1,885,893,883,-1,932,884,933,-1,887,893,885,-1,931,894,893,-1,928,884,883,-1,928,934,935,-1,895,927,883,-1,933,928,935,-1,893,895,883,-1,894,889,895,-1,935,934,936,-1,927,934,928,-1,927,891,926,-1,936,934,897,-1,891,927,895,-1,925,890,902,-1,897,934,926,-1,927,926,934,-1,926,925,923,-1,936,897,896,-1,926,891,925,-1,890,925,891,-1,898,897,923,-1,898,910,937,-1,923,904,908,-1,896,898,937,-1,904,923,925,-1,924,903,899,-1,910,898,908,-1,910,922,938,-1,924,909,908,-1,937,910,938,-1,908,904,924,-1,903,924,904,-1,922,910,909,-1,922,921,939,-1,909,901,919,-1,938,922,939,-1,901,909,924,-1,940,900,918,-1,921,906,941,-1,922,919,921,-1,919,940,920,-1,939,921,941,-1,919,901,940,-1,900,940,901,-1,906,921,920,-1,906,905,942,-1,917,907,920,-1,941,906,942,-1,920,940,917,-1,918,917,940,-1,911,905,915,-1,920,907,906,-1,907,915,905,-1,942,905,912,-1,917,914,913,-1,907,917,913,-1,911,879,882,-1,880,915,913,-1,882,916,911,-1,879,911,915,-1,113,114,932,-1,932,881,113,-1,881,912,916,-1,881,941,942,-1,912,881,942,-1,881,938,939,-1,941,881,939,-1,937,938,932,-1,881,932,938,-1,936,896,932,-1,932,896,937,-1,933,935,932,-1,932,935,936,-1,116,932,114,-1,117,888,118,-1,115,929,930,-1,892,888,117,-1,115,118,929,-1,888,929,118,-1,116,930,932,-1,115,930,116,-1,943,892,117,-1,117,119,943,-1,902,890,944,-1,945,890,889,-1,890,945,944,-1,894,946,889,-1,945,889,946,-1,894,931,947,-1,947,946,894,-1,948,931,886,-1,931,948,947,-1,892,949,886,-1,948,886,949,-1,943,949,892,-1,950,902,944,-1,950,951,903,-1,903,902,950,-1,899,951,952,-1,951,899,903,-1,953,900,952,-1,899,952,900,-1,953,954,918,-1,918,900,953,-1,914,954,878,-1,954,914,918,-1,914,878,877,-1,955,956,957,-1,958,959,960,-1,961,962,963,-1,878,954,964,-1,965,964,966,-1,967,966,968,-1,961,969,970,-1,971,972,973,-1,974,975,976,-1,977,978,979,-1,980,981,982,-1,981,983,982,-1,975,974,984,-1,974,985,984,-1,980,982,975,-1,985,949,943,-1,956,986,987,-1,982,983,986,-1,976,988,989,-1,963,990,968,-1,979,989,991,-1,992,993,994,-1,995,996,997,-1,992,994,972,-1,969,978,998,-1,999,1000,959,-1,954,966,964,-1,1000,999,1001,-1,959,1000,1002,-1,958,965,971,-1,987,986,983,-1,1003,997,996,-1,985,974,949,-1,980,975,984,-1,976,975,988,-1,948,949,974,-1,986,988,982,-1,957,956,987,-1,974,976,948,-1,982,988,975,-1,988,991,989,-1,947,948,976,-1,956,991,986,-1,1003,955,957,-1,989,947,976,-1,986,991,988,-1,979,991,977,-1,946,947,989,-1,977,956,955,-1,1004,995,997,-1,989,979,946,-1,956,977,991,-1,978,977,998,-1,945,946,979,-1,955,996,998,-1,996,955,1003,-1,979,978,945,-1,955,998,977,-1,969,998,970,-1,944,945,978,-1,995,970,996,-1,994,993,1004,-1,969,950,944,-1,996,970,998,-1,970,962,961,-1,944,978,969,-1,995,993,962,-1,993,995,1004,-1,969,961,950,-1,995,962,970,-1,962,990,963,-1,951,950,961,-1,990,993,992,-1,1005,958,973,-1,963,951,961,-1,993,990,962,-1,968,990,967,-1,952,951,963,-1,992,971,967,-1,971,992,972,-1,963,968,952,-1,992,967,990,-1,966,967,965,-1,953,952,968,-1,973,958,971,-1,1005,999,959,-1,968,966,953,-1,971,965,967,-1,965,960,964,-1,954,953,966,-1,1005,959,958,-1,958,960,965,-1,1002,1006,960,-1,959,1002,960,-1,878,964,1006,-1,960,1006,964,-1,122,97,1001,-1,1001,981,122,-1,981,987,983,-1,981,1003,957,-1,987,981,957,-1,981,1004,997,-1,1003,981,997,-1,994,1004,1001,-1,981,1001,1004,-1,973,972,1001,-1,1001,972,994,-1,999,1005,1001,-1,1001,1005,973,-1,120,984,985,-1,943,119,121,-1,981,980,122,-1,122,980,123,-1,984,123,980,-1,984,120,123,-1,943,121,985,-1,121,120,985,-1,105,1001,97,-1,103,1006,18,-1,104,1002,1000,-1,878,1006,103,-1,104,18,1002,-1,1006,1002,18,-1,105,1000,1001,-1,104,1000,105,-1,
        ]
    }
}
Shape{
    appearance Appearance {
        material  Material {
            diffuseColor 0.8117647058823529 0.8117647058823529 0.8117647058823529
            specularColor 0.7529411764705882 0.7529411764705882 0.7529411764705882
            ambientIntensity 1.0
            transparency 1.0
            shininess 0.5
        }
    }
    geometry IndexedFaceSet {
        ccw TRUE
        solid FALSE
        coord DEF co Coordinate {
            point [
                1.2598 0.4134 2.2244, 1.2598 -0.4134 2.2047, 1.2598 0.4134 2.2047, 1.2598 -0.4134 2.2244, -1.8898 -0.4134 2.2047, -1.8898 -0.4134 2.2244, -1.8898 0.4134 2.2047, -1.8898 0.4134 2.2244, 1.3386 -0.4921 2.2244, -1.9685 -0.4921 2.2244, 1.3386 0.4921 2.2244, -1.9685 0.4921 2.2244, -1.9685 -0.4921 2.3622, -1.9685 0.4921 2.3622, 1.3386 0.4921 2.3622, -0.7087 0.4921 2.5591, -0.7087 0.4921 2.7559, 0.0787 0.4921 2.7559, 0.0787 0.4921 2.5591, 1.3386 -0.4921 2.3622, 0.0787 -0.4921 2.5591, 0.0787 -0.4921 2.7559, -0.7087 -0.4921 2.7559, -0.7087 -0.4921 2.5591, -0.5906 0.0 2.5775, -0.5906 0.0 2.7559, -0.0394 0.0 2.7559, -0.0394 0.0 2.5775, -0.587 0.3347 1.5054, -0.0787 0.3347 1.5268, 0.5941 0.3347 1.5054, -0.0787 0.3347 1.8418, -0.5512 0.3347 1.8418, -0.587 0.3347 1.8598, -0.5512 0.3347 1.5268, 0.5941 0.3347 1.8598, -0.5512 0.3544 1.5268, -0.5512 0.4725 1.7236, -0.5512 0.4725 1.8418, -0.0787 0.3544 1.5268, -0.0787 0.4725 1.7236, -0.0787 0.4725 1.8418, -0.587 -0.3346 1.5054, -0.0787 -0.3346 1.5268, -0.5512 -0.3346 1.5268, 0.5941 -0.3346 1.5054, -0.587 -0.3346 1.8598, -0.5512 -0.3346 1.8418, -0.0787 -0.3346 1.8418, 0.5941 -0.3346 1.8598, -0.5512 -0.4724 1.7236, -0.5512 -0.4724 1.8418, -0.5512 -0.3543 1.5268, -0.0787 -0.4724 1.7236, -0.0787 -0.3543 1.5268, -0.0787 -0.4724 1.8418, -0.4868 -0.181 0.4331, -0.4868 -0.181 0.4252, -0.4868 -0.3913 0.4252, -0.4868 -0.3913 0.4331, -0.4605 -0.3913 0.4252, -0.4605 -0.3913 0.4331, -0.4605 -0.2078 0.4252, -0.4605 -0.2078 0.4331, -0.3291 -0.2078 0.4252, -0.3291 -0.2078 0.4331, -0.3291 -0.181 0.4252, -0.3291 -0.181 0.4331, -0.2546 -0.351 0.4252, -0.2809 -0.36 0.4252, -0.2634 -0.3376 0.4252, -0.1232 -0.3376 0.4252, -0.1276 -0.36 0.4252, -0.1495 -0.3376 0.4252, -0.2459 -0.1855 0.4252, -0.224 -0.2078 0.4252, -0.2415 -0.2123 0.4252, -0.1845 -0.2078 0.4252, -0.1626 -0.1855 0.4252, -0.167 -0.2123 0.4252, -0.1451 -0.1944 0.4252, -0.1539 -0.2213 0.4252, -0.1845 -0.181 0.4252, -0.224 -0.181 0.4252, -0.2546 -0.2213 0.4252, -0.2634 -0.1944 0.4252, -0.2634 -0.2347 0.4252, -0.2809 -0.2123 0.4252, -0.2897 -0.2302 0.4252, -0.2678 -0.2526 0.4252, -0.2897 -0.3421 0.4252, -0.2678 -0.3197 0.4252, -0.2941 -0.3197 0.4252, -0.2941 -0.2526 0.4252, -0.2415 -0.36 0.4252, -0.2634 -0.3779 0.4252, -0.2459 -0.3868 0.4252, -0.224 -0.3644 0.4252, -0.1845 -0.3913 0.4252, -0.224 -0.3913 0.4252, -0.1845 -0.3644 0.4252, -0.167 -0.36 0.4252, -0.1626 -0.3868 0.4252, -0.1539 -0.351 0.4252, -0.1451 -0.3779 0.4252, -0.1276 -0.2123 0.4252, -0.1495 -0.2347 0.4252, -0.1232 -0.2347 0.4252, -0.0882 -0.181 0.4252, -0.0619 -0.2794 0.4252, -0.0882 -0.3913 0.4252, -0.0619 -0.3063 0.4252, 0.0695 -0.181 0.4252, -0.0619 -0.2078 0.4252, 0.052 -0.2794 0.4252, 0.052 -0.3063 0.4252, -0.0619 -0.3644 0.4252, 0.0695 -0.3644 0.4252, 0.0695 -0.3913 0.4252, 0.0695 -0.2078 0.4252, 0.2754 -0.2302 0.4252, 0.2535 -0.2526 0.4252, 0.2492 -0.2347 0.4252, 0.2798 -0.2526 0.4252, 0.2535 -0.3197 0.4252, 0.2798 -0.3197 0.4252, 0.2667 -0.36 0.4252, 0.2404 -0.351 0.4252, 0.2492 -0.3376 0.4252, 0.2273 -0.36 0.4252, 0.2492 -0.3779 0.4252, 0.2316 -0.3868 0.4252, 0.2097 -0.3644 0.4252, 0.2097 -0.3913 0.4252, 0.2754 -0.3421 0.4252, 0.1309 -0.3644 0.4252, 0.1046 -0.3913 0.4252, 0.1309 -0.2078 0.4252, 0.1046 -0.181 0.4252, 0.2097 -0.2078 0.4252, 0.2316 -0.1855 0.4252, 0.2273 -0.2123 0.4252, 0.2404 -0.2213 0.4252, 0.2492 -0.1944 0.4252, 0.2667 -0.2123 0.4252, 0.2097 -0.181 0.4252, 0.4901 -0.181 0.4252, 0.42 -0.3913 0.4252, 0.4419 -0.2526 0.4252, 0.3587 -0.2347 0.4252, 0.3149 -0.181 0.4252, 0.3411 -0.181 0.4252, 0.3631 -0.2526 0.4252, 0.4638 -0.181 0.4252, 0.4463 -0.2347 0.4252, 0.385 -0.3913 0.4252, 0.4025 -0.3734 0.4252, -0.1495 -0.2347 0.4331, -0.1232 -0.2347 0.4331, -0.1276 -0.2123 0.4331, -0.1451 -0.1944 0.4331, -0.1626 -0.1855 0.4331, -0.1845 -0.181 0.4331, -0.224 -0.181 0.4331, -0.2459 -0.1855 0.4331, -0.2634 -0.1944 0.4331, -0.2809 -0.2123 0.4331, -0.2897 -0.2302 0.4331, -0.2941 -0.2526 0.4331, -0.2941 -0.3197 0.4331, -0.2897 -0.3421 0.4331, -0.2809 -0.36 0.4331, -0.2634 -0.3779 0.4331, -0.2459 -0.3868 0.4331, -0.224 -0.3913 0.4331, -0.1845 -0.3913 0.4331, -0.1626 -0.3868 0.4331, -0.1451 -0.3779 0.4331, -0.1276 -0.36 0.4331, -0.1232 -0.3376 0.4331, -0.1495 -0.3376 0.4331, -0.1539 -0.351 0.4331, -0.167 -0.36 0.4331, -0.1845 -0.3644 0.4331, -0.224 -0.3644 0.4331, -0.2415 -0.36 0.4331, -0.2546 -0.351 0.4331, -0.2634 -0.3376 0.4331, -0.2678 -0.3197 0.4331, -0.2678 -0.2526 0.4331, -0.2634 -0.2347 0.4331, -0.2546 -0.2213 0.4331, -0.2415 -0.2123 0.4331, -0.224 -0.2078 0.4331, -0.1845 -0.2078 0.4331, -0.167 -0.2123 0.4331, -0.1539 -0.2213 0.4331, -0.0619 -0.2078 0.4331, 0.0695 -0.2078 0.4331, 0.0695 -0.181 0.4331, -0.0882 -0.181 0.4331, -0.0882 -0.3913 0.4331, 0.0695 -0.3913 0.4331, 0.0695 -0.3644 0.4331, -0.0619 -0.3644 0.4331, -0.0619 -0.3063 0.4331, 0.052 -0.3063 0.4331, 0.052 -0.2794 0.4331, -0.0619 -0.2794 0.4331, 0.1046 -0.3913 0.4331, 0.2097 -0.3913 0.4331, 0.2316 -0.3868 0.4331, 0.2492 -0.3779 0.4331, 0.2667 -0.36 0.4331, 0.2754 -0.3421 0.4331, 0.2798 -0.3197 0.4331, 0.2798 -0.2526 0.4331, 0.2754 -0.2302 0.4331, 0.2667 -0.2123 0.4331, 0.2492 -0.1944 0.4331, 0.2316 -0.1855 0.4331, 0.2097 -0.181 0.4331, 0.1046 -0.181 0.4331, 0.2097 -0.3644 0.4331, 0.1309 -0.3644 0.4331, 0.1309 -0.2078 0.4331, 0.2097 -0.2078 0.4331, 0.2273 -0.2123 0.4331, 0.2404 -0.2213 0.4331, 0.2492 -0.2347 0.4331, 0.2535 -0.2526 0.4331, 0.2535 -0.3197 0.4331, 0.2492 -0.3376 0.4331, 0.2404 -0.351 0.4331, 0.2273 -0.36 0.4331, 0.385 -0.3913 0.4331, 0.42 -0.3913 0.4331, 0.4901 -0.181 0.4331, 0.4638 -0.181 0.4331, 0.4463 -0.2347 0.4331, 0.3587 -0.2347 0.4331, 0.3411 -0.181 0.4331, 0.3149 -0.181 0.4331, 0.4419 -0.2526 0.4331, 0.4025 -0.3734 0.4331, 0.3631 -0.2526 0.4331
            ]
        }
        coordIndex [
            0,1,2,-1,0,3,1,-1,3,4,1,-1,3,5,4,-1,5,6,4,-1,5,7,6,-1,7,2,6,-1,7,0,2,-1,5,8,9,-1,5,3,8,-1,10,8,0,-1,7,11,0,-1,11,5,9,-1,0,8,3,-1,11,7,5,-1,11,10,0,-1,9,12,13,-1,9,13,11,-1,11,14,10,-1,15,16,17,-1,11,13,15,-1,17,18,15,-1,15,18,11,-1,11,18,14,-1,8,14,19,-1,14,8,10,-1,8,12,9,-1,20,21,22,-1,8,19,20,-1,22,23,20,-1,20,23,8,-1,8,23,12,-1,13,24,15,-1,12,23,24,-1,12,24,13,-1,24,25,16,-1,16,15,24,-1,25,26,16,-1,25,22,21,-1,16,26,17,-1,25,21,26,-1,27,17,26,-1,27,18,17,-1,14,27,19,-1,27,14,18,-1,19,27,20,-1,27,26,21,-1,21,20,27,-1,24,22,25,-1,24,23,22,-1,28,29,30,-1,31,32,33,-1,28,34,29,-1,28,33,34,-1,30,31,35,-1,33,35,31,-1,30,29,31,-1,33,32,34,-1,36,32,37,-1,36,34,32,-1,32,38,37,-1,37,39,36,-1,39,37,40,-1,36,39,29,-1,29,34,36,-1,40,41,31,-1,40,31,39,-1,31,29,39,-1,41,38,32,-1,32,31,41,-1,38,40,37,-1,38,41,40,-1,42,43,44,-1,43,42,45,-1,46,42,44,-1,46,47,48,-1,46,44,47,-1,45,49,48,-1,46,48,49,-1,45,48,43,-1,50,51,47,-1,47,52,50,-1,47,44,52,-1,53,52,54,-1,52,53,50,-1,53,48,55,-1,43,48,54,-1,48,53,54,-1,53,55,51,-1,53,51,50,-1,47,51,55,-1,47,55,48,-1,52,43,54,-1,43,52,44,-1,56,57,58,-1,56,58,59,-1,59,58,60,-1,59,60,61,-1,61,60,62,-1,61,62,63,-1,63,62,64,-1,63,64,65,-1,65,64,66,-1,65,66,67,-1,67,66,57,-1,67,57,56,-1,62,66,64,-1,62,58,57,-1,62,60,58,-1,66,62,57,-1,68,69,70,-1,71,72,73,-1,74,75,76,-1,77,78,79,-1,79,80,81,-1,82,75,83,-1,84,85,76,-1,86,87,84,-1,88,87,86,-1,86,89,88,-1,70,90,91,-1,89,92,93,-1,94,95,68,-1,96,95,94,-1,97,96,94,-1,98,99,100,-1,101,102,100,-1,103,104,101,-1,73,72,103,-1,81,105,106,-1,72,104,103,-1,104,102,101,-1,102,98,100,-1,99,97,100,-1,99,96,97,-1,68,95,69,-1,69,90,70,-1,90,92,91,-1,91,92,89,-1,93,88,89,-1,84,87,85,-1,76,85,74,-1,74,83,75,-1,82,77,75,-1,82,78,77,-1,78,80,79,-1,80,105,81,-1,105,107,106,-1,108,109,110,-1,109,111,110,-1,108,112,113,-1,111,114,115,-1,116,117,118,-1,118,110,116,-1,116,110,111,-1,114,111,109,-1,109,108,113,-1,112,119,113,-1,120,121,122,-1,123,121,120,-1,123,124,121,-1,123,125,124,-1,126,127,128,-1,129,127,130,-1,131,129,130,-1,131,132,129,-1,132,131,133,-1,124,134,128,-1,135,133,136,-1,137,136,138,-1,139,140,141,-1,135,132,133,-1,142,141,143,-1,130,127,126,-1,126,128,134,-1,134,124,125,-1,142,144,122,-1,144,120,122,-1,144,142,143,-1,143,141,140,-1,145,139,137,-1,140,139,145,-1,136,137,135,-1,145,137,138,-1,146,147,148,-1,149,150,151,-1,149,152,150,-1,153,146,154,-1,148,152,154,-1,148,154,146,-1,147,155,156,-1,152,149,154,-1,147,156,148,-1,156,155,152,-1,150,152,155,-1,157,106,107,-1,157,107,158,-1,158,107,105,-1,158,105,159,-1,159,105,80,-1,159,80,160,-1,160,80,78,-1,160,78,161,-1,161,78,82,-1,161,82,162,-1,162,82,83,-1,162,83,163,-1,163,83,74,-1,163,74,164,-1,164,74,85,-1,164,85,165,-1,165,85,87,-1,165,87,166,-1,166,87,88,-1,166,88,167,-1,167,88,93,-1,167,93,168,-1,168,93,92,-1,168,92,169,-1,169,92,90,-1,169,90,170,-1,170,90,69,-1,170,69,171,-1,171,69,95,-1,171,95,172,-1,172,95,96,-1,172,96,173,-1,173,96,99,-1,173,99,174,-1,174,99,98,-1,174,98,175,-1,175,98,102,-1,175,102,176,-1,176,102,104,-1,176,104,177,-1,177,104,72,-1,177,72,178,-1,178,72,71,-1,178,71,179,-1,179,71,73,-1,179,73,180,-1,180,73,103,-1,180,103,181,-1,181,103,101,-1,181,101,182,-1,182,101,100,-1,182,100,183,-1,183,100,97,-1,183,97,184,-1,184,97,94,-1,184,94,185,-1,185,94,68,-1,185,68,186,-1,186,68,70,-1,186,70,187,-1,187,70,91,-1,187,91,188,-1,188,91,89,-1,188,89,189,-1,189,89,86,-1,189,86,190,-1,190,86,84,-1,190,84,191,-1,191,84,76,-1,191,76,192,-1,192,76,75,-1,192,75,193,-1,193,75,77,-1,193,77,194,-1,194,77,79,-1,194,79,195,-1,195,79,81,-1,195,81,196,-1,196,81,106,-1,196,106,157,-1,197,113,119,-1,197,119,198,-1,198,119,112,-1,198,112,199,-1,199,112,108,-1,199,108,200,-1,200,108,110,-1,200,110,201,-1,201,110,118,-1,201,118,202,-1,202,118,117,-1,202,117,203,-1,203,117,116,-1,203,116,204,-1,204,116,111,-1,204,111,205,-1,205,111,115,-1,205,115,206,-1,206,115,114,-1,206,114,207,-1,207,114,109,-1,207,109,208,-1,208,109,113,-1,208,113,197,-1,209,136,133,-1,209,133,210,-1,210,133,131,-1,210,131,211,-1,211,131,130,-1,211,130,212,-1,212,130,126,-1,212,126,213,-1,213,126,134,-1,213,134,214,-1,214,134,125,-1,214,125,215,-1,215,125,123,-1,215,123,216,-1,216,123,120,-1,216,120,217,-1,217,120,144,-1,217,144,218,-1,218,144,143,-1,218,143,219,-1,219,143,140,-1,219,140,220,-1,220,140,145,-1,220,145,221,-1,221,145,138,-1,221,138,222,-1,222,138,136,-1,222,136,209,-1,223,132,135,-1,223,135,224,-1,224,135,137,-1,224,137,225,-1,225,137,139,-1,225,139,226,-1,226,139,141,-1,226,141,227,-1,227,141,142,-1,227,142,228,-1,228,142,122,-1,228,122,229,-1,229,122,121,-1,229,121,230,-1,230,121,124,-1,230,124,231,-1,231,124,128,-1,231,128,232,-1,232,128,127,-1,232,127,233,-1,233,127,129,-1,233,129,234,-1,234,129,132,-1,234,132,223,-1,235,155,147,-1,235,147,236,-1,236,147,146,-1,236,146,237,-1,237,146,153,-1,237,153,238,-1,238,153,154,-1,238,154,239,-1,239,154,149,-1,239,149,240,-1,240,149,151,-1,240,151,241,-1,241,151,150,-1,241,150,242,-1,242,150,155,-1,242,155,235,-1,243,148,156,-1,243,156,244,-1,244,156,152,-1,244,152,245,-1,245,152,148,-1,245,148,243,-1,
        ]
    }
}
Shape{
    appearance Appearance {
        material  Material {
            diffuseColor 0.803921568627451 0.5843137254901961 0.19215686274509805
            specularColor 0.7529411764705882 0.7529411764705882 0.7529411764705882
            ambientIntensity 1.0
            transparency 1.0
            shininess 0.5
        }
    }
    geometry IndexedFaceSet {
        ccw TRUE
        solid FALSE
        coord DEF co Coordinate {
            point [
                -0.1063 0.073 0.0139, -0.1063 0.1518 0.0, -0.1063 0.1118 0.0035, -0.1063 0.0788 0.2306, -0.1063 -0.0787 0.2306, -0.1063 -0.0787 0.4331, -0.1063 0.0366 0.0309, -0.1063 0.1518 0.1575, -0.1063 -0.0248 0.0824, -0.1063 0.0036 0.0539, -0.1063 0.9252 0.0, -0.1063 0.1329 0.16, -0.1063 0.9252 0.1575, -0.1063 0.1002 0.1789, -0.1063 0.1153 0.1673, -0.1063 -0.0648 0.1517, -0.1063 0.0885 0.194, -0.1063 -0.0478 0.1153, -0.1063 -0.0752 0.1905, -0.1063 0.0812 0.2116, -0.1063 0.0788 0.4331, 0.1063 -0.0787 0.4331, 0.1063 -0.0787 0.2306, 0.1063 0.1518 0.0, 0.1063 0.1518 0.1575, 0.1063 0.0366 0.0309, 0.1063 0.073 0.0139, 0.1063 0.1118 0.0035, 0.1063 0.0036 0.0539, 0.1063 -0.0248 0.0824, 0.1063 0.9252 0.0, 0.1063 0.1329 0.16, 0.1063 0.9252 0.1575, 0.1063 0.0812 0.2116, 0.1063 0.0788 0.2306, 0.1063 -0.0648 0.1517, 0.1063 0.1153 0.1673, 0.1063 0.1002 0.1789, 0.1063 0.0885 0.194, 0.1063 -0.0478 0.1153, 0.1063 -0.0752 0.1905, 0.1063 0.0788 0.4331, 0.8937 -0.0787 0.2688, 0.8937 -0.0787 0.4331, 0.8937 0.0788 0.2688, 0.8937 0.0495 0.1468, 0.8937 -0.1206 0.1818, 0.8937 0.0656 0.1857, 0.8937 -0.1653 0.1603, 0.8937 0.0274 0.1108, 0.8937 0.0 0.0787, 0.8937 -0.1417 0.1685, 0.8937 -0.032 0.0513, 0.8937 -0.068 0.0293, 0.8937 -0.19 0.1575, 0.8937 -0.107 0.0132, 0.8937 -0.19 0.0, 0.8937 -0.9252 0.1575, 0.8937 -0.9252 0.0, 0.8937 -0.148 0.0033, 0.8937 -0.103 0.1994, 0.8937 0.0755 0.2267, 0.8937 -0.0897 0.2205, 0.8937 -0.0815 0.244, 0.8937 0.0788 0.4331, 1.1063 -0.0787 0.4331, 1.1063 -0.0787 0.2688, 1.1063 0.0656 0.1857, 1.1063 -0.103 0.1994, 1.1063 -0.1206 0.1818, 1.1063 -0.1417 0.1685, 1.1063 0.0274 0.1108, 1.1063 0.0495 0.1468, 1.1063 -0.19 0.1575, 1.1063 -0.032 0.0513, 1.1063 0.0 0.0787, 1.1063 -0.1653 0.1603, 1.1063 -0.068 0.0293, 1.1063 -0.19 0.0, 1.1063 -0.9252 0.1575, 1.1063 -0.107 0.0132, 1.1063 -0.9252 0.0, 1.1063 -0.148 0.0033, 1.1063 -0.0897 0.2205, 1.1063 -0.0815 0.244, 1.1063 0.0755 0.2267, 1.1063 0.0788 0.2688, 1.1063 0.0788 0.4331, -1.1063 -0.0787 0.2688, -1.1063 -0.0787 0.4331, -1.1063 0.0788 0.2688, -1.1063 0.0495 0.1468, -1.1063 -0.1206 0.1818, -1.1063 0.0656 0.1857, -1.1063 -0.1653 0.1603, -1.1063 0.0274 0.1108, -1.1063 0.0 0.0787, -1.1063 -0.1417 0.1685, -1.1063 -0.032 0.0513, -1.1063 -0.068 0.0293, -1.1063 -0.19 0.1575, -1.1063 -0.107 0.0132, -1.1063 -0.19 0.0, -1.1063 -0.9252 0.1575, -1.1063 -0.9252 0.0, -1.1063 -0.148 0.0033, -1.1063 -0.103 0.1994, -1.1063 0.0755 0.2267, -1.1063 -0.0897 0.2205, -1.1063 -0.0815 0.244, -1.1063 0.0788 0.4331, -0.8937 -0.0787 0.4331, -0.8937 -0.0787 0.2688, -0.8937 0.0656 0.1857, -0.8937 -0.103 0.1994, -0.8937 -0.1206 0.1818, -0.8937 -0.1417 0.1685, -0.8937 0.0274 0.1108, -0.8937 0.0495 0.1468, -0.8937 -0.19 0.1575, -0.8937 -0.032 0.0513, -0.8937 0.0 0.0787, -0.8937 -0.1653 0.1603, -0.8937 -0.068 0.0293, -0.8937 -0.19 0.0, -0.8937 -0.9252 0.1575, -0.8937 -0.107 0.0132, -0.8937 -0.9252 0.0, -0.8937 -0.148 0.0033, -0.8937 -0.0897 0.2205, -0.8937 -0.0815 0.244, -0.8937 0.0755 0.2267, -0.8937 0.0788 0.2688, -0.8937 0.0788 0.4331
            ]
        }
        coordIndex [
            0,1,2,-1,3,4,5,-1,1,6,7,-1,6,1,0,-1,8,7,9,-1,7,6,9,-1,10,1,7,-1,8,11,7,-1,7,12,10,-1,13,14,15,-1,15,16,13,-1,17,11,8,-1,17,15,14,-1,11,17,14,-1,18,19,16,-1,16,15,18,-1,18,4,19,-1,3,5,20,-1,19,4,3,-1,21,4,22,-1,4,21,5,-1,23,24,25,-1,23,25,26,-1,26,27,23,-1,28,24,29,-1,25,24,28,-1,24,23,30,-1,24,31,29,-1,32,24,30,-1,33,34,22,-1,35,36,37,-1,35,37,38,-1,39,29,31,-1,39,36,35,-1,31,36,39,-1,40,38,33,-1,38,40,35,-1,40,33,22,-1,22,34,21,-1,34,41,21,-1,34,3,20,-1,34,20,41,-1,36,11,14,-1,7,31,24,-1,16,19,33,-1,38,37,13,-1,3,34,19,-1,33,19,34,-1,13,16,38,-1,16,33,38,-1,37,36,14,-1,13,37,14,-1,31,7,11,-1,36,31,11,-1,7,24,32,-1,7,32,12,-1,12,32,30,-1,12,30,10,-1,10,30,23,-1,10,23,1,-1,9,28,29,-1,28,6,25,-1,6,28,9,-1,26,25,0,-1,6,0,25,-1,2,27,26,-1,26,0,2,-1,1,27,2,-1,1,23,27,-1,9,29,8,-1,17,8,39,-1,29,39,8,-1,35,15,17,-1,17,39,35,-1,15,40,18,-1,40,15,35,-1,40,22,18,-1,18,22,4,-1,42,43,44,-1,45,46,47,-1,48,49,50,-1,49,51,45,-1,52,53,54,-1,52,54,50,-1,55,56,53,-1,54,53,56,-1,57,54,56,-1,58,57,56,-1,55,59,56,-1,50,54,48,-1,49,48,51,-1,45,51,46,-1,47,46,60,-1,61,47,62,-1,60,62,47,-1,61,63,44,-1,63,61,62,-1,44,63,42,-1,64,44,43,-1,65,42,66,-1,42,65,43,-1,67,68,69,-1,70,71,72,-1,72,67,69,-1,73,74,75,-1,75,71,76,-1,77,73,78,-1,73,77,74,-1,79,78,73,-1,77,78,80,-1,81,78,79,-1,80,78,82,-1,75,76,73,-1,71,70,76,-1,72,69,70,-1,83,68,67,-1,84,83,85,-1,67,85,83,-1,86,66,84,-1,84,85,86,-1,86,65,66,-1,86,87,65,-1,86,44,64,-1,86,64,87,-1,49,75,50,-1,49,45,71,-1,71,75,49,-1,72,45,47,-1,45,72,71,-1,61,67,47,-1,72,47,67,-1,61,44,85,-1,85,67,61,-1,44,86,85,-1,74,50,75,-1,52,74,77,-1,74,52,50,-1,80,53,77,-1,52,77,53,-1,80,82,55,-1,55,53,80,-1,59,82,78,-1,82,59,55,-1,59,78,56,-1,56,78,81,-1,56,81,58,-1,58,81,79,-1,58,79,57,-1,57,79,73,-1,57,73,54,-1,83,63,62,-1,42,84,66,-1,46,51,70,-1,69,68,60,-1,48,73,76,-1,76,51,48,-1,69,46,70,-1,48,54,73,-1,51,76,70,-1,60,68,62,-1,46,69,60,-1,83,84,63,-1,68,83,62,-1,42,63,84,-1,88,89,90,-1,91,92,93,-1,94,95,96,-1,95,97,91,-1,98,99,100,-1,98,100,96,-1,101,102,99,-1,100,99,102,-1,103,100,102,-1,104,103,102,-1,101,105,102,-1,96,100,94,-1,95,94,97,-1,91,97,92,-1,93,92,106,-1,107,93,108,-1,106,108,93,-1,107,109,90,-1,109,107,108,-1,90,109,88,-1,110,90,89,-1,111,88,112,-1,88,111,89,-1,113,114,115,-1,116,117,118,-1,118,113,115,-1,119,120,121,-1,121,117,122,-1,123,119,124,-1,119,123,120,-1,125,124,119,-1,123,124,126,-1,127,124,125,-1,126,124,128,-1,121,122,119,-1,117,116,122,-1,118,115,116,-1,129,114,113,-1,130,129,131,-1,113,131,129,-1,132,112,130,-1,130,131,132,-1,132,111,112,-1,132,133,111,-1,132,90,110,-1,132,110,133,-1,95,121,96,-1,95,91,117,-1,117,121,95,-1,118,91,93,-1,91,118,117,-1,107,113,93,-1,118,93,113,-1,107,90,131,-1,131,113,107,-1,90,132,131,-1,120,96,121,-1,98,120,123,-1,120,98,96,-1,126,99,123,-1,98,123,99,-1,126,128,101,-1,101,99,126,-1,105,128,124,-1,128,105,101,-1,105,124,102,-1,102,124,127,-1,102,127,104,-1,104,127,125,-1,104,125,103,-1,103,125,119,-1,103,119,100,-1,129,109,108,-1,88,130,112,-1,92,97,116,-1,115,114,106,-1,94,119,122,-1,122,97,94,-1,115,92,116,-1,94,100,119,-1,97,122,116,-1,106,114,108,-1,92,115,106,-1,129,130,109,-1,114,129,108,-1,88,109,130,-1,
        ]
    }
}